<svg xmlns="http://www.w3.org/2000/svg" width="456.629" height="603.648" viewBox="0 0 456.629 603.648">
  <g id="Groupe_51" data-name="Groupe 51" transform="translate(4.224 -76.729)">
    <g id="Groupe_22" data-name="Groupe 22" transform="translate(245.014 304.645)">
      <g id="Groupe_19" data-name="Groupe 19" transform="translate(0 0)">
        <circle id="Ellipse_1" data-name="Ellipse 1" cx="26.784" cy="26.784" r="26.784" fill="#fbc0a4"/>
        <circle id="Ellipse_2" data-name="Ellipse 2" cx="22.703" cy="22.703" r="22.703" transform="translate(18.564 131.774)" fill="#fbc0a4"/>
        <path id="Tracé_46" data-name="Tracé 46" d="M114.283,163.283c9.419,43.518,17.092,111.241,17.7,120.995h45.408s-.208-97.51-11.439-135.047Z" transform="translate(-113.415 -129.801)" fill="#fbc0a4"/>
      </g>
      <g id="Groupe_20" data-name="Groupe 20" transform="translate(60.722 253.038)">
        <path id="Tracé_47" data-name="Tracé 47" d="M132.211,232.451a11.773,11.773,0,1,0,8.427-14.363A11.773,11.773,0,0,0,132.211,232.451Z" transform="translate(-131.828 -217.706)" fill="#fbc0a4"/>
      </g>
      <g id="Groupe_21" data-name="Groupe 21" transform="translate(18.559 131.769)">
        <path id="Tracé_49" data-name="Tracé 49" d="M120.207,210.586A22.7,22.7,0,1,0,136.456,182.9,22.7,22.7,0,0,0,120.207,210.586Z" transform="translate(-119.469 -182.16)" fill="#fbc0a4"/>
        <path id="Tracé_50" data-name="Tracé 50" d="M132.211,232.451a11.773,11.773,0,1,0,8.427-14.363A11.773,11.773,0,0,0,132.211,232.451Z" transform="translate(-89.665 -96.437)" fill="#fbc0a4"/>
        <path id="Tracé_51" data-name="Tracé 51" d="M161.494,306.165c-2.525-14.967-15.959-42.02-27.044-67.744-10.678-24.782-14.765-39.844-14.765-39.844l43.941-11.439s20.217,100.976,21.026,115.782Z" transform="translate(-118.947 -170.152)" fill="#fbc0a4"/>
      </g>
    </g>
    <path id="Tracé_52" data-name="Tracé 52" d="M130.862,275.072c-3.166-22.2-9.743-69.306-15.966-98.052l.01,0a26.762,26.762,0,0,1,51.644-14.045l.01,0c6.663,22.267,11.439,56.642,17.225,96.984C169.5,268.487,135.6,274.342,130.862,275.072Z" transform="translate(130.986 161.108)" fill="#ffbe00"/>
    <g id="Groupe_25" data-name="Groupe 25" transform="translate(107.753 513.098)">
      <g id="Groupe_23" data-name="Groupe 23" transform="translate(0 0)">
        <circle id="Ellipse_3" data-name="Ellipse 3" cx="39.075" cy="39.075" r="39.075" transform="translate(0 76.21) rotate(-77.205)" fill="#138a92"/>
        <path id="Tracé_58" data-name="Tracé 58" d="M144.335,338.64l9.862-120.3H76.047l2.068,120.3Z" transform="translate(-68.364 -171.585)" fill="#138a92"/>
      </g>
      <g id="Groupe_24" data-name="Groupe 24" transform="translate(84.342 2.544)">
        <circle id="Ellipse_5" data-name="Ellipse 5" cx="39.075" cy="39.075" r="39.075" transform="translate(0 11.066) rotate(-8.141)" fill="#138a92"/>
        <path id="Tracé_60" data-name="Tracé 60" d="M176.035,341.921l1.7-124.895L100.1,226.011l9.895,116.029Z" transform="translate(-94.701 -177.304)" fill="#138a92"/>
      </g>
      <path id="Tracé_62" data-name="Tracé 62" d="M236.132,206.9h-39.5c-.113,0-.225,0-.338,0H115.284c-.055,0-.106-.007-.16-.007s-.109.007-.16.007H76.047v39.332h.014a39.065,39.065,0,0,0,39.063,38.81h81.8v-.02a38.862,38.862,0,0,0,39.049-38.79h.164Z" transform="translate(-68.364 -199.205)" fill="#623a33"/>
      <path id="Tracé_63" data-name="Tracé 63" d="M236.132,206.9h-39.5c-.113,0-.225,0-.338,0H115.284c-.055,0-.106-.007-.16-.007s-.109.007-.16.007H76.047v39.332h.014a39.065,39.065,0,0,0,39.063,38.81h81.8v-.02a38.862,38.862,0,0,0,39.049-38.79h.164Z" transform="translate(-68.364 -199.205)" fill="#623a33"/>
    </g>
    <path id="Tracé_88" data-name="Tracé 88" d="M294.328,359.116s19.334-2.816,21.04-1.678c.507.338-2.89,20.773-2.89,20.773l12.577,120.782-29.062-71.872Z" transform="translate(-18.984 72.064)" opacity="0.3"/>
    <g id="Groupe_26" data-name="Groupe 26" transform="translate(67.139 273.237)">
      <circle id="Ellipse_6" data-name="Ellipse 6" cx="26.784" cy="26.784" r="26.784" transform="translate(172.205 77.724) rotate(-76.042)" fill="#bfb6ca"/>
      <circle id="Ellipse_7" data-name="Ellipse 7" cx="26.784" cy="26.784" r="26.784" transform="matrix(0.227, -0.974, 0.974, 0.227, 0, 84.773)" fill="#bfb6ca"/>
      <path id="Tracé_64" data-name="Tracé 64" d="M91.26,214.64l17.587,86.937L95.4,411.55S180.53,443.83,268,416.7c0,0-4.589-127.02-12.752-226.611l21.943-16.962c-19.262-17.873-86.937-41.539-105.9-38.544C141.458,139.3,67.351,174.3,65.127,182.677Z" transform="translate(-54.084 -134.329)" fill="#bfb6ca"/>
    </g>
    <g id="Groupe_46" data-name="Groupe 46" transform="translate(109.531 76.729)">
      <g id="Groupe_29" data-name="Groupe 29" transform="translate(49.574 139.025)">
        <g id="Groupe_28" data-name="Groupe 28">
          <g id="Groupe_27" data-name="Groupe 27">
            <path id="Tracé_65" data-name="Tracé 65" d="M95.578,182.8,88.847,117.48l49.8,25.351-.474,2.385-1.392,32.86c-.4,9.4-.01,18.89-9.887,20.473h0C115.068,200.446,96.694,193.623,95.578,182.8Z" transform="translate(-88.847 -117.48)" fill="#d1e0fb"/>
          </g>
        </g>
      </g>
      <g id="Groupe_32" data-name="Groupe 32" transform="translate(49.574 139.025)">
        <g id="Groupe_31" data-name="Groupe 31">
          <g id="Groupe_30" data-name="Groupe 30">
            <path id="Tracé_66" data-name="Tracé 66" d="M137.305,165.607l.863-20.391.474-2.385-49.8-25.351,3.176,30.82C100.921,161.657,118.49,165.665,137.305,165.607Z" transform="translate(-88.847 -117.48)" fill="#138a92"/>
          </g>
        </g>
      </g>
      <g id="Groupe_33" data-name="Groupe 33" transform="translate(5.431 31.348)">
        <path id="Tracé_67" data-name="Tracé 67" d="M203.027,166.565c-.222-15.564.72-37.947-5.5-54.23l-.014-.038-.017-.038c-2.746-7.154-6.9-13.107-13.138-16.8-6.833-4.916-16.338-8.092-30.605-9.228-29.978-2.392-49.464,8.843-62.5,28.357-9.72,14.547-5.575,33.631-3.592,40.512-5.54.5-13.254,3.848-11.49,19.026,2.692,23.2,19.484,23.656,24.437,24.659,0,0,9.245,41.3,60.2,37.347S203.4,192.729,203.027,166.565Z" transform="translate(-75.908 -85.918)" fill="#d1e0fb"/>
      </g>
      <g id="Groupe_34" data-name="Groupe 34">
        <path id="Tracé_68" data-name="Tracé 68" d="M208.552,137.615c13.643-11.705,21.721-28.081,16.829-47.025-7.4,3.34-14.39,6.066-21.79,9.406,7.758-7,9.44-13.356,8.877-23.267,0,0-91.812,19.7-111.31,34.593-5.752,4.391-9.01,8.508-10.753,12.933L76.449,107.1s-8.334,20.725,7.949,27.845c-3.466,2.405-6.748,6.366-8.413,12.909-4.5,17.645,8.631,31.878,8.631,31.878a13.274,13.274,0,0,1,11.64-1.143c5.912,2.088,12.534,12.623,12.2,23.049l5.428-.713-.7-21.94s7.192-5.315,13.39-23.612c9.713,4.834,21.367,7.11,30.5,5.7L140.1,144.609c15.356,11.091,27.484,15.342,46.4,16.253s39.018-7.277,48.649-23.588C227,137.728,216.7,137.158,208.552,137.615Z" transform="translate(-74.316 -76.729)" fill="#6bb7bc"/>
      </g>
      <g id="Groupe_36" data-name="Groupe 36" transform="translate(90.361 129.577)">
        <g id="Groupe_35" data-name="Groupe 35">
          <path id="Tracé_69" data-name="Tracé 69" d="M107.917,114.958a1.737,1.737,0,0,1,.56,2.108,5.089,5.089,0,0,1-6.373,3.04c-.969-.406-1.389-1.116-1.286-1.76.317-1.313,1.7-2.149,3.006-2.835C105.178,114.924,106.692,114.378,107.917,114.958Z" transform="translate(-100.803 -114.711)" fill="#138a92"/>
        </g>
      </g>
      <g id="Groupe_37" data-name="Groupe 37" transform="translate(55.396 86.913)">
        <path id="Tracé_70" data-name="Tracé 70" d="M118.318,103.283l-.055-.092c-4.456-2.252-18.337-.6-27.7,4.456-.164,2.548,2.194,4.728,4.653,5.4s5.073.2,7.581-.276c4.415-.839,8.44-2.17,12.657-3.255A4.352,4.352,0,0,0,118.318,103.283Z" transform="translate(-90.554 -102.205)" fill="#4385F6"/>
      </g>
      <g id="Groupe_38" data-name="Groupe 38" transform="translate(99.343 86.144)">
        <path id="Tracé_71" data-name="Tracé 71" d="M103.888,103.629l.027-.051c7.577-2.927,16.843-1.719,25.426,2.685.14,2.5-2.03,4.8-4.292,5.615s-4.66.512-6.963.2c-3.862-.532-7.4-1.522-11.074-2.313A4.357,4.357,0,0,1,103.888,103.629Z" transform="translate(-103.435 -101.979)" fill="#4385F6"/>
      </g>
      <g id="Groupe_39" data-name="Groupe 39" transform="translate(63.585 104.264)">
        <path id="Tracé_72" data-name="Tracé 72" d="M92.961,113.64A6.647,6.647,0,1,0,99.9,107.3,6.648,6.648,0,0,0,92.961,113.64Z" transform="translate(-92.954 -107.291)" fill="#4385F6"/>
      </g>
      <g id="Groupe_40" data-name="Groupe 40" transform="translate(98.95 104.264)">
        <path id="Tracé_73" data-name="Tracé 73" d="M103.327,113.64a6.649,6.649,0,1,0,6.946-6.342A6.65,6.65,0,0,0,103.327,113.64Z" transform="translate(-103.32 -107.291)" fill="#4385F6"/>
      </g>
      <g id="Groupe_41" data-name="Groupe 41" transform="translate(106.333 120.944)">
        <path id="Tracé_74" data-name="Tracé 74" d="M130.579,124.164a12.554,12.554,0,1,1-13.111-11.971A12.55,12.55,0,0,1,130.579,124.164Z" transform="translate(-105.484 -112.18)" fill="#c4d9ff"/>
      </g>
      <g id="Groupe_42" data-name="Groupe 42" transform="translate(42.666 122.742)">
        <path id="Tracé_75" data-name="Tracé 75" d="M111.917,124.692A12.554,12.554,0,1,1,98.807,112.72,12.552,12.552,0,0,1,111.917,124.692Z" transform="translate(-86.822 -112.707)" fill="#c4d9ff"/>
      </g>
      <g id="Groupe_43" data-name="Groupe 43" transform="translate(11.724 105.977)" opacity="0.51">
        <path id="Tracé_76" data-name="Tracé 76" d="M78.348,112.965c-1.774,6.137.744,12.609,3.217,18.5.737,1.75,1.549,3.6,3.115,4.667s4.128.911,4.95-.8c.8-1.655-.379-3.517-1.3-5.107s-1.44-3.978.1-4.971c.72-.464,1.661-.423,2.415-.822,1.648-.87,1.634-3.217,1.211-5.029a28.119,28.119,0,0,0-2.763-7.181c-1.221-2.207-3.149-4.469-5.67-4.428C80.985,107.838,79.082,110.427,78.348,112.965Z" transform="translate(-77.752 -107.793)" fill="#138a92"/>
      </g>
      <g id="Groupe_45" data-name="Groupe 45" transform="translate(76.629 137.787)">
        <g id="Groupe_44" data-name="Groupe 44">
          <path id="Tracé_77" data-name="Tracé 77" d="M118.365,123.927c.327.542-.607,1.91-2.927,3.009a14.069,14.069,0,0,1-17.631-5.619c-1.252-2.241-1.225-3.9-.645-4.152,1.211-.559,4.275,3.944,9.877,5.663C112.6,124.663,117.7,122.77,118.365,123.927Z" transform="translate(-96.777 -117.117)" fill="#138a92"/>
        </g>
      </g>
    </g>
    <path id="Tracé_78" data-name="Tracé 78" d="M101.331,133.875s25.348,28.145,32.4,26.279S143.88,133.4,143.88,133.4s15.41,3.323,17.15,6.352,2.664,32.6-2.487,38.012-22.056-9.788-22.056-9.788-14.506,18.8-22.6,17-26.61-37.647-27.811-41.9S101.331,133.875,101.331,133.875Z" transform="translate(63.42 136.669)" fill="#fff"/>
    <path id="Tracé_86" data-name="Tracé 86" d="M294.019,451.558s19.629-4.552,21.335-5.689-24.179-86.62-24.179-86.62l-1.707,16.641Z" transform="translate(-18.675 -17.964)" opacity="0.2"/>
    <rect id="Rectangle_3" data-name="Rectangle 3" width="355" height="221" rx="12" transform="translate(97.404 379.696)" fill="#4385F6"/>
    <path id="Tracé_78048" data-name="Tracé 78048" d="M8,0h92a8,8,0,0,1,8,8v8a8,8,0,0,1-8,8H8a8,8,0,0,1-8-8V8A8,8,0,0,1,8,0Z" transform="translate(127.404 411.696)" fill="#fefefe"/>
    <rect id="Rectangle_7" data-name="Rectangle 7" width="108" height="25" rx="8" transform="translate(304.404 489.696)" fill="#fff"/>
    <rect id="Rectangle_8" data-name="Rectangle 8" width="108" height="24" rx="8" transform="translate(127.404 513.696)" fill="#fff"/>
    <rect id="Rectangle_9" data-name="Rectangle 9" width="51" height="25" rx="8" transform="translate(127.404 449.696)" fill="#e0e0e0"/>
    <rect id="Rectangle_11" data-name="Rectangle 11" width="108" height="7" rx="3.5" transform="translate(127.404 482.696)" fill="#fff"/>
    <rect id="Rectangle_18" data-name="Rectangle 18" width="108" height="7" rx="3.5" transform="translate(127.404 546.696)" fill="#fff"/>
    <rect id="Rectangle_12" data-name="Rectangle 12" width="108" height="7" rx="3.5" transform="translate(127.404 496.696)" fill="#fff"/>
    <rect id="Rectangle_17" data-name="Rectangle 17" width="108" height="7" rx="3.5" transform="translate(127.404 560.696)" fill="#fff"/>
    <rect id="Rectangle_13" data-name="Rectangle 13" width="108" height="8" rx="4" transform="translate(304.404 415.696)" fill="#fff"/>
    <rect id="Rectangle_14" data-name="Rectangle 14" width="70" height="8" rx="4" transform="translate(304.404 431.696)" fill="#fff"/>
    <rect id="Rectangle_15" data-name="Rectangle 15" width="108" height="8" rx="4" transform="translate(304.404 447.696)" fill="#fff"/>
    <rect id="Rectangle_16" data-name="Rectangle 16" width="35" height="8" rx="4" transform="translate(304.404 463.696)" fill="#fff"/>
    <rect id="Rectangle_10" data-name="Rectangle 10" width="49" height="25" rx="8" transform="translate(186.404 449.696)" fill="#e0e5ee"/>
    <path id="Tracé_103" data-name="Tracé 103" d="M20.339,11.833l12.407,9.306L57.12-4.121" transform="translate(323.771 540.48)" fill="none" stroke="#d1d1d1" stroke-linecap="round" stroke-linejoin="round" stroke-width="5"/>
    <g id="Groupe_55" data-name="Groupe 55" transform="translate(-4.225 303.311)">
      <g id="Groupe_52" data-name="Groupe 52" transform="matrix(0.914, 0.407, -0.407, 0.914, 69.222, 2.755)">
        <circle id="Ellipse_11" data-name="Ellipse 11" cx="26.757" cy="26.757" r="26.757" transform="translate(10.394 0)" fill="#d1e0fb"/>
        <circle id="Ellipse_12" data-name="Ellipse 12" cx="22.681" cy="22.681" r="22.681" transform="translate(0.001 124.826)" fill="#d1e0fb"/>
        <path id="Tracé_89" data-name="Tracé 89" d="M63.041,14.035c-9.41,43.478-17.075,104.315-17.678,114.059H0S.208,37.5,11.428,0Z" transform="translate(0 19.412)" fill="#d1e0fb"/>
      </g>
      <path id="Tracé_90" data-name="Tracé 90" d="M40.8,122.136c4.724.757,9.427,1.663,14.158,2.389,0,0,8.636-62.356,14.853-91.077l-.01,0A26.735,26.735,0,0,0,18.21,19.413H18.2C11.543,41.658,6.772,77.107,0,115.7,11.032,118.356,29.569,120.336,40.8,122.136Z" transform="matrix(0.914, 0.407, -0.407, 0.914, 63.035, 0)" fill="#ffbe00"/>
      <g id="Groupe_53" data-name="Groupe 53" transform="matrix(0.438, 0.899, -0.899, 0.438, 157.087, 183.393)">
        <path id="Tracé_91" data-name="Tracé 91" d="M6.6,1.2A11.762,11.762,0,1,1,1.2,16.93,11.76,11.76,0,0,1,6.6,1.2Z" transform="translate(0 42.094)" fill="#d1e0fb"/>
        <path id="Tracé_92" data-name="Tracé 92" d="M0,43.292c6.656-5.835,3.807-22.7,6.254-29.287S18.009,6.927,18.009,6.927,24.076,2.08,28.1.421s7.249,1.728,6.987,7.788,6.271,3.49,9.059,8.906-.412,9.911,6.148,13.715S12.61,62.957,12.61,62.957Z" transform="translate(6.6)" fill="#d1e0fb"/>
      </g>
      <g id="Groupe_54" data-name="Groupe 54" transform="matrix(0.438, 0.899, -0.899, 0.438, 71.577, 104.096)">
        <circle id="Ellipse_13" data-name="Ellipse 13" cx="22.681" cy="22.681" r="22.681" transform="translate(0 34.208)" fill="#d1e0fb"/>
        <path id="Tracé_93" data-name="Tracé 93" d="M6.6,1.2A11.762,11.762,0,1,1,1.2,16.93,11.76,11.76,0,0,1,6.6,1.2Z" transform="translate(108.756)" fill="#d1e0fb"/>
        <path id="Tracé_94" data-name="Tracé 94" d="M102.634,0C89.646,7.825,66.521,12.246,39.808,20.582,14.076,28.615,0,35.316,0,35.316L19.917,76.067s83.576-47.381,95.327-56.4Z" transform="translate(12.722 1.198)" fill="#d1e0fb"/>
      </g>
    </g>
    <path id="Tracé_95" data-name="Tracé 95" d="M163.939,257.872s3.4-1.958,6.8-8.116-2.286-13.541-2.286-13.541-.276-7.772-1.641-11.913-6.039-4.377-10.47-.229-6.741-2.487-12.671-1.071-7.26,6.772-14.424,4.268-8.565,20.893,0,29.468S163.939,257.872,163.939,257.872Z" transform="translate(160.758 348.106)" fill="#d1e0fb"/>
  </g>
</svg>
