<svg xmlns="http://www.w3.org/2000/svg" width="247.303" height="113.881" viewBox="0 0 247.303 113.881">
  <g id="Groupe_39742" data-name="Groupe 39742" opacity="0.5">
    <path id="Tracé_2485" data-name="Tracé 2485" d="M38.209,22.316a2.575,2.575,0,1,1-2.575-2.575A2.574,2.574,0,0,1,38.209,22.316Z" transform="translate(-33.058 -19.741)"/>
    <path id="Tracé_2486" data-name="Tracé 2486" d="M53.93,22.316a2.575,2.575,0,1,1-2.575-2.575A2.575,2.575,0,0,1,53.93,22.316Z" transform="translate(-24.564 -19.741)"/>
    <path id="Tracé_2487" data-name="Tracé 2487" d="M69.651,22.316a2.575,2.575,0,1,1-2.575-2.575A2.575,2.575,0,0,1,69.651,22.316Z" transform="translate(-16.069 -19.741)"/>
    <path id="Tracé_2488" data-name="Tracé 2488" d="M85.372,22.316A2.575,2.575,0,1,1,82.8,19.741,2.575,2.575,0,0,1,85.372,22.316Z" transform="translate(-7.575 -19.741)"/>
    <path id="Tracé_2489" data-name="Tracé 2489" d="M101.093,22.316a2.575,2.575,0,1,1-2.575-2.575A2.575,2.575,0,0,1,101.093,22.316Z" transform="translate(0.92 -19.741)"/>
    <path id="Tracé_2490" data-name="Tracé 2490" d="M116.814,22.316a2.575,2.575,0,1,1-2.575-2.575A2.575,2.575,0,0,1,116.814,22.316Z" transform="translate(9.414 -19.741)"/>
    <path id="Tracé_2491" data-name="Tracé 2491" d="M132.535,22.316a2.575,2.575,0,1,1-2.575-2.575A2.575,2.575,0,0,1,132.535,22.316Z" transform="translate(17.908 -19.741)"/>
    <path id="Tracé_2492" data-name="Tracé 2492" d="M148.255,22.316a2.575,2.575,0,1,1-2.575-2.575A2.574,2.574,0,0,1,148.255,22.316Z" transform="translate(26.402 -19.741)"/>
    <path id="Tracé_2493" data-name="Tracé 2493" d="M163.976,22.316a2.575,2.575,0,1,1-2.575-2.575A2.574,2.574,0,0,1,163.976,22.316Z" transform="translate(34.897 -19.741)"/>
    <path id="Tracé_2494" data-name="Tracé 2494" d="M179.7,22.316a2.575,2.575,0,1,1-2.575-2.575A2.574,2.574,0,0,1,179.7,22.316Z" transform="translate(43.391 -19.741)"/>
    <path id="Tracé_2495" data-name="Tracé 2495" d="M195.418,22.316a2.575,2.575,0,1,1-2.575-2.575A2.574,2.574,0,0,1,195.418,22.316Z" transform="translate(51.885 -19.741)"/>
    <path id="Tracé_2496" data-name="Tracé 2496" d="M38.209,36.434a2.575,2.575,0,1,1-2.575-2.575A2.575,2.575,0,0,1,38.209,36.434Z" transform="translate(-33.058 -12.113)"/>
    <path id="Tracé_2497" data-name="Tracé 2497" d="M53.93,36.434a2.575,2.575,0,1,1-2.575-2.575A2.576,2.576,0,0,1,53.93,36.434Z" transform="translate(-24.564 -12.113)"/>
    <path id="Tracé_2498" data-name="Tracé 2498" d="M69.651,36.434a2.575,2.575,0,1,1-2.575-2.575A2.576,2.576,0,0,1,69.651,36.434Z" transform="translate(-16.069 -12.113)"/>
    <path id="Tracé_2499" data-name="Tracé 2499" d="M85.372,36.434A2.575,2.575,0,1,1,82.8,33.859,2.576,2.576,0,0,1,85.372,36.434Z" transform="translate(-7.575 -12.113)"/>
    <path id="Tracé_2500" data-name="Tracé 2500" d="M101.093,36.434a2.575,2.575,0,1,1-2.575-2.575A2.576,2.576,0,0,1,101.093,36.434Z" transform="translate(0.92 -12.113)"/>
    <path id="Tracé_2501" data-name="Tracé 2501" d="M116.814,36.434a2.575,2.575,0,1,1-2.575-2.575A2.576,2.576,0,0,1,116.814,36.434Z" transform="translate(9.414 -12.113)"/>
    <path id="Tracé_2502" data-name="Tracé 2502" d="M132.535,36.434a2.575,2.575,0,1,1-2.575-2.575A2.576,2.576,0,0,1,132.535,36.434Z" transform="translate(17.908 -12.113)"/>
    <path id="Tracé_2503" data-name="Tracé 2503" d="M148.255,36.434a2.575,2.575,0,1,1-2.575-2.575A2.575,2.575,0,0,1,148.255,36.434Z" transform="translate(26.402 -12.113)"/>
    <path id="Tracé_2504" data-name="Tracé 2504" d="M163.976,36.434a2.575,2.575,0,1,1-2.575-2.575A2.575,2.575,0,0,1,163.976,36.434Z" transform="translate(34.897 -12.113)"/>
    <path id="Tracé_2505" data-name="Tracé 2505" d="M179.7,36.434a2.575,2.575,0,1,1-2.575-2.575A2.575,2.575,0,0,1,179.7,36.434Z" transform="translate(43.391 -12.113)"/>
    <path id="Tracé_2506" data-name="Tracé 2506" d="M195.418,36.434a2.575,2.575,0,1,1-2.575-2.575A2.575,2.575,0,0,1,195.418,36.434Z" transform="translate(51.885 -12.113)"/>
    <path id="Tracé_2507" data-name="Tracé 2507" d="M38.209,50.551a2.575,2.575,0,1,1-2.575-2.574A2.574,2.574,0,0,1,38.209,50.551Z" transform="translate(-33.058 -4.485)"/>
    <path id="Tracé_2508" data-name="Tracé 2508" d="M53.93,50.551a2.575,2.575,0,1,1-2.575-2.574A2.575,2.575,0,0,1,53.93,50.551Z" transform="translate(-24.564 -4.485)"/>
    <path id="Tracé_2509" data-name="Tracé 2509" d="M69.651,50.551a2.575,2.575,0,1,1-2.575-2.574A2.575,2.575,0,0,1,69.651,50.551Z" transform="translate(-16.069 -4.485)"/>
    <path id="Tracé_2510" data-name="Tracé 2510" d="M85.372,50.551A2.575,2.575,0,1,1,82.8,47.977,2.575,2.575,0,0,1,85.372,50.551Z" transform="translate(-7.575 -4.485)"/>
    <path id="Tracé_2511" data-name="Tracé 2511" d="M101.093,50.551a2.575,2.575,0,1,1-2.575-2.574A2.575,2.575,0,0,1,101.093,50.551Z" transform="translate(0.92 -4.485)"/>
    <path id="Tracé_2512" data-name="Tracé 2512" d="M116.814,50.551a2.575,2.575,0,1,1-2.575-2.574A2.575,2.575,0,0,1,116.814,50.551Z" transform="translate(9.414 -4.485)"/>
    <path id="Tracé_2513" data-name="Tracé 2513" d="M132.535,50.551a2.575,2.575,0,1,1-2.575-2.574A2.575,2.575,0,0,1,132.535,50.551Z" transform="translate(17.908 -4.485)"/>
    <path id="Tracé_2514" data-name="Tracé 2514" d="M148.255,50.551a2.575,2.575,0,1,1-2.575-2.574A2.574,2.574,0,0,1,148.255,50.551Z" transform="translate(26.402 -4.485)"/>
    <path id="Tracé_2515" data-name="Tracé 2515" d="M163.976,50.551a2.575,2.575,0,1,1-2.575-2.574A2.574,2.574,0,0,1,163.976,50.551Z" transform="translate(34.897 -4.485)"/>
    <path id="Tracé_2516" data-name="Tracé 2516" d="M179.7,50.551a2.575,2.575,0,1,1-2.575-2.574A2.574,2.574,0,0,1,179.7,50.551Z" transform="translate(43.391 -4.485)"/>
    <path id="Tracé_2517" data-name="Tracé 2517" d="M195.418,50.551a2.575,2.575,0,1,1-2.575-2.574A2.574,2.574,0,0,1,195.418,50.551Z" transform="translate(51.885 -4.485)"/>
    <ellipse id="Ellipse_13" data-name="Ellipse 13" cx="2.575" cy="2.575" rx="2.575" ry="2.575" transform="translate(0 65.237)"/>
    <ellipse id="Ellipse_14" data-name="Ellipse 14" cx="2.575" cy="2.575" rx="2.575" ry="2.575" transform="translate(24.216 65.237)"/>
    <path id="Tracé_2518" data-name="Tracé 2518" d="M69.651,64.669a2.575,2.575,0,1,1-2.575-2.575A2.575,2.575,0,0,1,69.651,64.669Z" transform="translate(-16.069 3.143)"/>
    <circle id="Ellipse_15" data-name="Ellipse 15" cx="2.575" cy="2.575" r="2.575" transform="translate(72.646 65.237)"/>
    <ellipse id="Ellipse_16" data-name="Ellipse 16" cx="2.575" cy="2.575" rx="2.575" ry="2.575" transform="translate(96.861 65.237)"/>
    <ellipse id="Ellipse_17" data-name="Ellipse 17" cx="2.575" cy="2.575" rx="2.575" ry="2.575" transform="translate(121.076 65.237)"/>
    <ellipse id="Ellipse_18" data-name="Ellipse 18" cx="2.575" cy="2.575" rx="2.575" ry="2.575" transform="translate(145.292 65.237)"/>
    <ellipse id="Ellipse_19" data-name="Ellipse 19" cx="2.575" cy="2.575" rx="2.575" ry="2.575" transform="translate(169.507 65.237)"/>
    <ellipse id="Ellipse_20" data-name="Ellipse 20" cx="2.575" cy="2.575" rx="2.575" ry="2.575" transform="translate(193.722 65.237)"/>
    <path id="Tracé_2519" data-name="Tracé 2519" d="M179.7,64.669a2.575,2.575,0,1,1-2.575-2.575A2.574,2.574,0,0,1,179.7,64.669Z" transform="translate(43.391 3.143)"/>
    <path id="Tracé_2520" data-name="Tracé 2520" d="M195.418,64.669a2.575,2.575,0,1,1-2.575-2.575A2.574,2.574,0,0,1,195.418,64.669Z" transform="translate(51.885 3.143)"/>
    <ellipse id="Ellipse_21" data-name="Ellipse 21" cx="2.575" cy="2.575" rx="2.575" ry="2.575" transform="translate(0 86.983)"/>
    <ellipse id="Ellipse_22" data-name="Ellipse 22" cx="2.575" cy="2.575" rx="2.575" ry="2.575" transform="translate(24.216 86.983)"/>
    <path id="Tracé_2521" data-name="Tracé 2521" d="M69.651,78.787a2.575,2.575,0,1,1-2.575-2.575A2.576,2.576,0,0,1,69.651,78.787Z" transform="translate(-16.069 10.771)"/>
    <circle id="Ellipse_23" data-name="Ellipse 23" cx="2.575" cy="2.575" r="2.575" transform="translate(72.646 86.983)"/>
    <ellipse id="Ellipse_24" data-name="Ellipse 24" cx="2.575" cy="2.575" rx="2.575" ry="2.575" transform="translate(96.861 86.983)"/>
    <ellipse id="Ellipse_25" data-name="Ellipse 25" cx="2.575" cy="2.575" rx="2.575" ry="2.575" transform="translate(121.076 86.983)"/>
    <ellipse id="Ellipse_26" data-name="Ellipse 26" cx="2.575" cy="2.575" rx="2.575" ry="2.575" transform="translate(145.292 86.983)"/>
    <ellipse id="Ellipse_27" data-name="Ellipse 27" cx="2.575" cy="2.575" rx="2.575" ry="2.575" transform="translate(169.507 86.983)"/>
    <ellipse id="Ellipse_28" data-name="Ellipse 28" cx="2.575" cy="2.575" rx="2.575" ry="2.575" transform="translate(193.722 86.983)"/>
    <path id="Tracé_2522" data-name="Tracé 2522" d="M179.7,78.787a2.575,2.575,0,1,1-2.575-2.575A2.575,2.575,0,0,1,179.7,78.787Z" transform="translate(43.391 10.771)"/>
    <path id="Tracé_2523" data-name="Tracé 2523" d="M195.418,78.787a2.575,2.575,0,1,1-2.575-2.575A2.575,2.575,0,0,1,195.418,78.787Z" transform="translate(51.885 10.771)"/>
    <ellipse id="Ellipse_29" data-name="Ellipse 29" cx="2.575" cy="2.575" rx="2.575" ry="2.575" transform="translate(0 108.729)"/>
    <ellipse id="Ellipse_30" data-name="Ellipse 30" cx="2.575" cy="2.575" rx="2.575" ry="2.575" transform="translate(24.216 108.729)"/>
    <path id="Tracé_2524" data-name="Tracé 2524" d="M69.651,92.906a2.575,2.575,0,1,1-2.575-2.577A2.576,2.576,0,0,1,69.651,92.906Z" transform="translate(-16.069 18.399)"/>
    <circle id="Ellipse_31" data-name="Ellipse 31" cx="2.575" cy="2.575" r="2.575" transform="translate(72.646 108.729)"/>
    <ellipse id="Ellipse_32" data-name="Ellipse 32" cx="2.575" cy="2.575" rx="2.575" ry="2.575" transform="translate(96.861 108.729)"/>
    <ellipse id="Ellipse_33" data-name="Ellipse 33" cx="2.575" cy="2.575" rx="2.575" ry="2.575" transform="translate(121.076 108.729)"/>
    <ellipse id="Ellipse_34" data-name="Ellipse 34" cx="2.575" cy="2.575" rx="2.575" ry="2.575" transform="translate(145.292 108.729)"/>
    <ellipse id="Ellipse_35" data-name="Ellipse 35" cx="2.575" cy="2.575" rx="2.575" ry="2.575" transform="translate(169.507 108.729)"/>
    <ellipse id="Ellipse_36" data-name="Ellipse 36" cx="2.575" cy="2.575" rx="2.575" ry="2.575" transform="translate(193.722 108.729)"/>
    <path id="Tracé_2525" data-name="Tracé 2525" d="M179.7,92.906a2.575,2.575,0,1,1-2.575-2.577A2.575,2.575,0,0,1,179.7,92.906Z" transform="translate(43.391 18.399)"/>
    <path id="Tracé_2526" data-name="Tracé 2526" d="M195.418,92.906a2.575,2.575,0,1,1-2.575-2.577A2.575,2.575,0,0,1,195.418,92.906Z" transform="translate(51.885 18.399)"/>
  </g>
</svg>
