<svg xmlns="http://www.w3.org/2000/svg" xmlns:xlink="http://www.w3.org/1999/xlink" width="134.421" height="134.421" viewBox="0 0 134.421 134.421">
  <defs>
    <filter id="Ellipse_38" x="0" y="0" width="134.421" height="134.421" filterUnits="userSpaceOnUse">
      <feOffset dy="3" input="SourceAlpha"/>
      <feGaussianBlur stdDeviation="10" result="blur"/>
      <feFlood flood-color="#1f54c3" flood-opacity="0.161"/>
      <feComposite operator="in" in2="blur"/>
      <feComposite in="SourceGraphic"/>
    </filter>
    <filter id="Tracé_2527" x="26.867" y="21.605" width="79.432" height="96.113" filterUnits="userSpaceOnUse">
      <feOffset dy="6" input="SourceAlpha"/>
      <feGaussianBlur stdDeviation="10" result="blur-2"/>
      <feFlood flood-color="#1f54c3" flood-opacity="0.149"/>
      <feComposite operator="in" in2="blur-2"/>
      <feComposite in="SourceGraphic"/>
    </filter>
  </defs>
  <g id="Groupe_335" data-name="Groupe 335" transform="translate(30 27)">
    <g id="Groupe_333" data-name="Groupe 333" transform="translate(0 0)">
      <g transform="matrix(1, 0, 0, 1, -30, -27)" filter="url(#Ellipse_38)">
        <circle id="Ellipse_38-2" data-name="Ellipse 38" cx="37.21" cy="37.21" r="37.21" transform="translate(30 27)" fill="#fff"/>
      </g>
      <g transform="matrix(1, 0, 0, 1, -30, -27)" filter="url(#Tracé_2527)">
        <path id="Tracé_2527-2" data-name="Tracé 2527" d="M270.211,257.528h-7.122v-4.585c0-1.405,1.649-1.732,2.419-1.732h4.6v-6.187L264.834,245c-7.192,0-8.836,4.613-8.836,7.57v4.957h-5.22V263.9H256v17.209h7.09V263.9h6.022Z" transform="translate(-193.91 -199.39)" fill="#05f"/>
      </g>
    </g>
  </g>
</svg>
