<svg xmlns="http://www.w3.org/2000/svg" width="617.836" height="435.403" viewBox="0 0 617.836 435.403">
  <g id="Groupe_39809" data-name="Groupe 39809" transform="translate(-538 -957)">
    <circle id="Ellipse_50" data-name="Ellipse 50" cx="33.647" cy="33.647" r="33.647" transform="translate(819.895 1324.187)" fill="#4385f6"/>
    <path id="Tracé_78066" data-name="Tracé 78066" d="M727.418,597.553c18.823-5.653,38.835-11.548,53.764-24.987,13.34-12.009,22.346-30.347,16.819-48.357-5.515-17.973-22.034-29.957-39.09-35.918-9.673-3.381-19.794-5.256-29.91-6.73-11-1.6-22.043-2.914-33.084-4.177q-67.057-7.67-134.619-9.371c-22.225-.56-44.445-.546-66.673-.224-19.851.288-40.758.281-59.173-8.156-14.321-6.561-27.318-18.5-31.308-34.183-4.606-18.107,3.89-36.546,16.077-49.659A130.169,130.169,0,0,1,441.9,357.713c8.4-5.8,17.1-11.2,25.982-16.229a361.8,361.8,0,0,1,54.688-25.212c9.323-3.39,18.784-6.315,28.327-9.013a242.38,242.38,0,0,0,23.93-7.664c15.056-6,29.376-16.165,33.2-32.828,3.628-15.793-2.489-32.938-13.214-44.67-12.407-13.573-31.115-19.524-49.051-20.486-20.136-1.081-39.807,3.959-58.733,10.354-20.186,6.822-39.936,14.665-60.548,20.19a407.378,407.378,0,0,1-62.316,11.584c-10.3,1.1-20.912,2.335-31.274,1.5-8.684-.7-17.324-3.258-23.724-9.421-5.488-5.285-8.757-12.547-7.633-20.212.2-1.392,2.319-.8,2.116.583-1.368,9.33,4.974,17.927,12.789,22.331,9.032,5.09,20.023,5.1,30.078,4.514a393.393,393.393,0,0,0,64.744-9.359c20.914-4.777,41.081-11.605,61.225-18.9,19.132-6.928,38.691-13.69,59.13-15.19,17.735-1.3,36.391,1.282,51.841,10.55a57.349,57.349,0,0,1,26.745,37.317c3.109,15.232-1.2,30.564-12.727,41.193-11.938,11.006-28.308,15.711-43.563,20.044a399.106,399.106,0,0,0-56.609,20.263,355.366,355.366,0,0,0-53.249,29.937C427.785,370,411.727,384,406.58,403.833a41.408,41.408,0,0,0,2.057,27.769,50.746,50.746,0,0,0,16.283,19.324c16.326,12.014,36.9,14.48,56.625,14.726,22.149.276,44.3-.472,66.456-.108q67.731,1.112,135.186,8.245,16.9,1.789,33.762,3.955c10.11,1.3,20.254,2.59,30.193,4.9,17.673,4.1,34.871,11.99,45.856,26.974a42.655,42.655,0,0,1,3.633,46.642c-8.435,16.6-24.236,27.154-41.015,34.089A291.013,291.013,0,0,1,728,599.669a1.1,1.1,0,0,1-.583-2.116Z" transform="translate(327.13 792.037)" fill="#f2f2f2"/>
    <circle id="Ellipse_51" data-name="Ellipse 51" cx="17.555" cy="17.555" r="17.555" transform="translate(612.529 990.281)" fill="#f2f2f2"/>
    <circle id="Ellipse_52" data-name="Ellipse 52" cx="17.555" cy="17.555" r="17.555" transform="translate(734.315 1023.562)" fill="#f2f2f2"/>
    <circle id="Ellipse_53" data-name="Ellipse 53" cx="17.555" cy="17.555" r="17.555" transform="translate(837.45 957)" fill="#f2f2f2"/>
    <circle id="Ellipse_54" data-name="Ellipse 54" cx="17.555" cy="17.555" r="17.555" transform="translate(901.817 1031.608)" fill="#f2f2f2"/>
    <circle id="Ellipse_55" data-name="Ellipse 55" cx="17.555" cy="17.555" r="17.555" transform="translate(814.775 1117.919)" fill="#f2f2f2"/>
    <circle id="Ellipse_56" data-name="Ellipse 56" cx="17.555" cy="17.555" r="17.555" transform="translate(704.326 1159.611)" fill="#f2f2f2"/>
    <circle id="Ellipse_57" data-name="Ellipse 57" cx="17.555" cy="17.555" r="17.555" transform="translate(821.358 1224.71)" fill="#f2f2f2"/>
    <circle id="Ellipse_58" data-name="Ellipse 58" cx="17.555" cy="17.555" r="17.555" transform="translate(947.167 1261.283)" fill="#f2f2f2"/>
    <circle id="Ellipse_59" data-name="Ellipse 59" cx="17.555" cy="17.555" r="17.555" transform="translate(1094.188 1253.237)" fill="#f2f2f2"/>
    <path id="Tracé_78067" data-name="Tracé 78067" d="M568.735,220.372c-52.585.371-95.641,43.1-96.388,95.685-.007.485-.01,3.9-.01,8.364A24.684,24.684,0,0,0,497.018,349.1h0a24.7,24.7,0,0,0,24.695-24.716c0-3.043,0-5.145,0-5.274a46.813,46.813,0,1,1,72.063,39.41l.009.01s-35.13,22.616-45.841,53.641l.009,0a68.762,68.762,0,0,0-2.833,19.579c0,2.725.16,26.567.47,45.919a25.445,25.445,0,0,0,25.447,25.032h0a25.451,25.451,0,0,0,25.45-25.608c-.107-17.722-.166-38.358-.166-39.856,0-19.05,18.378-38.032,33.474-50.41a101.527,101.527,0,0,0,34.917-55.589,63.458,63.458,0,0,0,1.828-13.776,97.1,97.1,0,0,0-97.8-97.1Z" transform="translate(281.202 786.369)" fill="#4385f6"/>
    <path id="Tracé_78068" data-name="Tracé 78068" d="M794.63,746.991h-616.1a.871.871,0,1,1,0-1.742H794.628a.871.871,0,1,1,0,1.742Z" transform="translate(360.338 645.412)" fill="#3f3d56"/>
    <circle id="Ellipse_60" data-name="Ellipse 60" cx="21.943" cy="21.943" r="21.943" transform="translate(975.735 1112.796)" fill="#2f2e41"/>
    <path id="Tracé_78069" data-name="Tracé 78069" d="M568.153,569.43h-8.967l-4.267-34.589h13.236Z" transform="translate(388.975 813.368)" fill="#a0616a"/>
    <path id="Tracé_78070" data-name="Tracé 78070" d="M548,578.626h17.294v10.889H537.109A10.889,10.889,0,0,1,548,578.626Z" transform="translate(393.759 801.609)" fill="#2f2e41"/>
    <path id="Tracé_78071" data-name="Tracé 78071" d="M663.153,569.43h-8.967l-4.267-34.589h13.236Z" transform="translate(363.463 813.368)" fill="#a0616a"/>
    <path id="Tracé_78072" data-name="Tracé 78072" d="M643,578.626h17.294v10.889H632.109A10.889,10.889,0,0,1,643,578.626Z" transform="translate(368.246 801.609)" fill="#2f2e41"/>
    <circle id="Ellipse_61" data-name="Ellipse 61" cx="17.965" cy="17.965" r="17.965" transform="translate(976.378 1120.88)" fill="#a0616a"/>
    <path id="Tracé_78073" data-name="Tracé 78073" d="M792.608,485.952l8.038-18.469a22.955,22.955,0,0,0-5.083-26.04,23.32,23.32,0,0,0-2.246-1.953,22.628,22.628,0,0,0-13.89-4.806,23.537,23.537,0,0,0-9.8,2.18c-.264.117-.519.241-.783.366-.5.241-1,.5-1.485.775a23.171,23.171,0,0,0-11.484,17.467L752.327,485.2c-.892,2.333-32.725,86.6-21.592,150.927a3.267,3.267,0,0,0,2.794,2.684l11.286,1.536a3.289,3.289,0,0,0,3.664-2.582L767.417,547.5a2.562,2.562,0,0,1,4.974-.168l26.756,94.927a3.271,3.271,0,0,0,3.153,2.4,3.746,3.746,0,0,0,.636-.059l13.788-2.655a3.27,3.27,0,0,0,2.655-3.518C817.353,615.828,806.586,502.651,792.608,485.952Z" transform="translate(212.443 728.815)" fill="#2f2e41"/>
    <path id="Tracé_78074" data-name="Tracé 78074" d="M706.084,419a7.355,7.355,0,0,0,7.749,8.194l10.042,24.132,7.6-11.26-10.7-21.19a7.4,7.4,0,0,0-14.687.123Z" transform="translate(218.443 734.795)" fill="#a0616a"/>
    <path id="Tracé_78075" data-name="Tracé 78075" d="M797.135,527.129a7.355,7.355,0,0,0,6.164-9.445L824.426,502.3l-12.72-4.763-18.114,15.344a7.4,7.4,0,0,0,3.542,14.254Z" transform="translate(196.212 711.937)" fill="#a0616a"/>
    <path id="Tracé_78076" data-name="Tracé 78076" d="M743.568,474.392a12.474,12.474,0,0,1-2.412-.238,11.927,11.927,0,0,1-8.739-7.034l-14.069-17.155a3.292,3.292,0,0,1,.813-4.887l10.009-6.2a3.292,3.292,0,0,1,4.546,1.09l9.916,16.336,18.989-14.034a7.111,7.111,0,0,1,8.273,11.383L751.94,470.947a11.888,11.888,0,0,1-8.372,3.445Z" transform="translate(215.336 727.819)" fill="#2f2e41"/>
    <path id="Tracé_78077" data-name="Tracé 78077" d="M818.776,502.162H818.7a3.3,3.3,0,0,1-2.422-1.149l-8.9-10.382a3.291,3.291,0,0,1,.673-4.881l16.664-11.109-15.1-18.149a7.11,7.11,0,0,1,10.889-8.911l18.347,17.93a12.087,12.087,0,0,1-2.688,19.705l-15,15.912a3.3,3.3,0,0,1-2.4,1.034Z" transform="translate(191.44 725.85)" fill="#2f2e41"/>
    <path id="Tracé_78078" data-name="Tracé 78078" d="M791.658,460.272a3.387,3.387,0,0,1-.426-.027A3.263,3.263,0,0,1,788.517,458l-6.687-20.5A2.255,2.255,0,0,1,783,434.774l.217-.1c.2-.094.392-.186.591-.275a23.826,23.826,0,0,1,9.95-2.211,22.914,22.914,0,0,1,12.553,3.772,2.29,2.29,0,0,1,.659,3.141l-12.544,19.652A3.259,3.259,0,0,1,791.658,460.272Z" transform="translate(198.117 729.486)" fill="#e6e6e6"/>
    <circle id="Ellipse_62" data-name="Ellipse 62" cx="7.18" cy="7.18" r="7.18" transform="translate(1007.799 1110.582)" fill="#2f2e41"/>
    <path id="Tracé_78079" data-name="Tracé 78079" d="M789.129,361.365h0a19.018,19.018,0,0,0-19.018,19.018v8.046h9.9l4.733-8.046,1.42,8.046h30.032l-8.046-8.046a19.018,19.018,0,0,0-19.018-19.018Z" transform="translate(201.235 748.505)" fill="#2f2e41"/>
    <path id="Tracé_78080" data-name="Tracé 78080" d="M834.809,362.6a11.081,11.081,0,0,1,12.055-7.6c4.576.765,8.194,4.443,10.349,8.551s3.151,8.706,4.6,13.113,3.5,8.839,7.163,11.691,9.273,3.627,12.866.692A14.715,14.715,0,0,1,854.43,394.3c-1.9-3.373-2.385-7.327-2.948-11.155s-1.293-7.79-3.556-10.928-6.5-5.188-10.1-3.759Z" transform="translate(183.86 750.242)" fill="#2f2e41"/>
    <path id="Tracé_78081" data-name="Tracé 78081" d="M503.861,352.186h0a24.684,24.684,0,0,1-24.682-24.681c0-4.467,0-7.881.01-8.366a96.19,96.19,0,0,1,11.234-43.82,96.407,96.407,0,0,0-18.549,55.523c-.007.485-.01,3.9-.01,8.364a24.685,24.685,0,0,0,24.681,24.683h0A24.7,24.7,0,0,0,520.31,345.9,24.593,24.593,0,0,1,503.861,352.186Z" transform="translate(281.329 771.612)" fill="#3f3d56"/>
    <path id="Tracé_78082" data-name="Tracé 78082" d="M592.513,287.162a46.816,46.816,0,0,1,40.712,65.4,46.811,46.811,0,1,0-78.577-49A46.718,46.718,0,0,1,592.513,287.162Z" transform="translate(259.098 771.589)" fill="#3f3d56"/>
    <path id="Tracé_78083" data-name="Tracé 78083" d="M604.6,553.758h0a25.446,25.446,0,0,1-25.447-25.038c-.31-19.346-.47-43.188-.47-45.913a68.758,68.758,0,0,1,2.833-19.579l-.009,0a69.53,69.53,0,0,1,4.019-9.29,80.5,80.5,0,0,0-11.333,20.993l.009,0a68.762,68.762,0,0,0-2.833,19.579c0,2.725.16,26.567.47,45.919a25.445,25.445,0,0,0,25.447,25.032h0a25.455,25.455,0,0,0,24.431-18.317A25.352,25.352,0,0,1,604.6,553.758Z" transform="translate(254.609 723.645)" fill="#3f3d56"/>
    <path id="Tracé_78084" data-name="Tracé 78084" d="M126.54,569.885h8.967l4.267-34.589H126.538Z" transform="translate(504.018 813.245)" fill="#ffb8b8"/>
    <path id="Tracé_78085" data-name="Tracé 78085" d="M0,0H28.183V10.889H10.889A10.889,10.889,0,0,1,0,0Z" transform="translate(656.818 1391.457) rotate(179.997)" fill="#2f2e41"/>
    <path id="Tracé_78086" data-name="Tracé 78086" d="M82.54,569.885h8.967L95.774,535.3H82.538Z" transform="translate(515.834 813.245)" fill="#ffb8b8"/>
    <path id="Tracé_78087" data-name="Tracé 78087" d="M0,0H28.183V10.889H10.889A10.889,10.889,0,0,1,0,0Z" transform="translate(624.634 1391.457) rotate(179.997)" fill="#2f2e41"/>
    <path id="Tracé_78088" data-name="Tracé 78088" d="M266.512,676.352l-8.759-.461a3.419,3.419,0,0,1-3.232-3.633l10.469-115.91,48.21,13.009,4.645-1.267L303.32,670.7a3.435,3.435,0,0,1-3.188,2.885l-9.442.44a3.419,3.419,0,0,1-3.607-3.508l1.711-61.585a1.14,1.14,0,0,0-2.255-.263l-16.5,64.961a3.4,3.4,0,0,1-3.342,2.725C266.635,676.357,266.574,676.355,266.512,676.352Z" transform="translate(339.699 696.142)" fill="#2f2e41"/>
    <circle id="Ellipse_63" data-name="Ellipse 63" cx="17.965" cy="17.965" r="17.965" transform="translate(614.204 1121.721)" fill="#ffb8b8"/>
    <path id="Tracé_78089" data-name="Tracé 78089" d="M265.5,463.837l1.975,42.62.714,15.506a3.4,3.4,0,0,0,2.249,3.054L316.766,541.8a3.271,3.271,0,0,0,1.17.205,3.4,3.4,0,0,0,3.411-3.5l-1.9-76.632a27.013,27.013,0,0,0-22.488-26.1c-.448-.068-.9-.137-1.36-.2a26.515,26.515,0,0,0-21.333,6.906,27.236,27.236,0,0,0-8.767,21.355Z" transform="translate(336.757 728.63)" fill="#ccc"/>
    <path id="Tracé_78090" data-name="Tracé 78090" d="M358.645,557.178a7.361,7.361,0,0,1-3.927-11.137l-15.71-20.89,13.557-.839,12.84,19.966a7.4,7.4,0,0,1-6.76,12.9Z" transform="translate(317.008 704.745)" fill="#ffb8b8"/>
    <path id="Tracé_78091" data-name="Tracé 78091" d="M341.119,522.826a3.4,3.4,0,0,1-1.859-1.842l-23.668-56.391a9.116,9.116,0,1,1,16.812-7.056l23.668,56.391a3.422,3.422,0,0,1-1.829,4.475l-10.508,4.41a3.4,3.4,0,0,1-2.617.013Z" transform="translate(323.488 724.179)" fill="#ccc"/>
    <path id="Tracé_78092" data-name="Tracé 78092" d="M298.36,529.447l22.733-43.528a3.568,3.568,0,0,1,4.809-1.509l33,17.233a3.568,3.568,0,0,1,1.509,4.809L337.675,549.98a3.568,3.568,0,0,1-4.809,1.509l-33-17.233a3.568,3.568,0,0,1-1.509-4.809Z" transform="translate(328.033 715.569)" fill="#3f3d56"/>
    <path id="Tracé_78093" data-name="Tracé 78093" d="M307.173,512.44a7.361,7.361,0,0,0-11.35-3.262l-21.781-14.449L274,508.311l20.689,11.639a7.4,7.4,0,0,0,12.479-7.51Z" transform="translate(334.465 712.69)" fill="#ffb8b8"/>
    <path id="Tracé_78094" data-name="Tracé 78094" d="M272.023,501.883l-17.8-14.1a12.554,12.554,0,0,1-5.722-19.848l16.163-21.182a7.385,7.385,0,0,1,12.529,7.522L264.4,475.194l18.794,8.914a3.419,3.419,0,0,1,1.425,4.915l-7.586,12.006a3.424,3.424,0,0,1-2.316,1.544l-.057.009A3.434,3.434,0,0,1,272.023,501.883Z" transform="translate(342.076 726.301)" fill="#ccc"/>
    <path id="Tracé_78095" data-name="Tracé 78095" d="M284.6,404.867a1.561,1.561,0,0,1,1.358-2.062,3.606,3.606,0,0,1,2.543,1.254,10.12,10.12,0,0,0,2.246,1.929,1.933,1.933,0,0,0,2.543-.46,3.537,3.537,0,0,0-.135-2.745,26.994,26.994,0,0,1-1.192-7.146c-.081-2.707.3-5.531,1.8-7.642,1.934-2.724,5.392-3.759,8.664-3.684s6.492,1.085,9.733,1.724c1.119.22,2.434.333,3.183-.534.8-.922.5-2.415.165-3.66-.878-3.231-1.81-6.572-3.851-9.181a13.823,13.823,0,0,0-8.822-4.967,21.167,21.167,0,0,0-9.847,1.118,26.4,26.4,0,0,0-12.934,9.01,21.384,21.384,0,0,0-4.08,15.8,19.506,19.506,0,0,0,7.231,12.328Z" transform="translate(333.991 746.849)" fill="#2f2e41"/>
    <path id="Tracé_78096" data-name="Tracé 78096" d="M589.267,715.951a33.642,33.642,0,0,1-12.486-52.29,33.645,33.645,0,1,0,45.766,48.615,33.624,33.624,0,0,1-33.28,3.675Z" transform="translate(256.862 667.323)" fill="#3f3d56"/>
  </g>
</svg>
