<svg xmlns="http://www.w3.org/2000/svg" width="3470.251" height="2072.239" viewBox="0 0 3470.251 2072.239">
  <g id="Groupe_39745" data-name="Groupe 39745" transform="translate(906.317 -6584.251)">
    <g id="Groupe_39744" data-name="Groupe 39744">
      <path id="Tracé_78051" data-name="Tracé 78051" d="M-2933.71,6609.714s56.736-468.07,638.277-401.878c398.937,45.407,740.025,159.789,1023.529,92.764,129.381-30.588,246.907-99.232,352.312-229.875,335.687-416.062,340.414-250.583,340.414-250.583s118.2,99.288,118.2,118.2,264.767,921.956,250.583,940.868-203.3,638.277-217.487,666.645-430.246,179.663-907.772,179.663S-3354.5,7347.278-3354.5,7347.278s-260.039-316.775-260.039-354.6S-2933.71,6609.714-2933.71,6609.714Z" transform="translate(2975.637 926.262) rotate(2)" fill="#4c979c" opacity="0.23"/>
    </g>
    <path id="Tracé_78052" data-name="Tracé 78052" d="M-2933.71,6609.714s56.736-468.07,638.277-401.878c398.937,45.407,740.025,159.789,1023.529,92.764,129.381-30.588,246.907-99.232,352.312-229.875,335.687-416.062,340.414-250.583,340.414-250.583s118.2,99.288,118.2,118.2,264.767,921.956,250.583,940.868-203.3,638.277-217.487,666.645-430.246,179.663-907.772,179.663S-3354.5,7347.278-3354.5,7347.278s-260.039-316.775-260.039-354.6S-2933.71,6609.714-2933.71,6609.714Z" transform="translate(2858.628 935.813) rotate(1)" fill="#4385F6" opacity="0.66"/>
  </g>
</svg>
