<svg id="Icon_ionic-ios-mail" data-name="Icon ionic-ios-mail" xmlns="http://www.w3.org/2000/svg" width="40.803" height="28.248" viewBox="0 0 40.803 28.248">
  <path id="Tracé_2" data-name="Tracé 2" d="M23.44,25.834a5.332,5.332,0,0,0,3.835-1.609L42.665,8.562a3.083,3.083,0,0,0-1.942-.687H6.168a3.062,3.062,0,0,0-1.942.687L19.615,24.226A5.333,5.333,0,0,0,23.44,25.834Z" transform="translate(-3.039 -7.875)" fill="#4385f6"/>
  <path id="Tracé_2529" data-name="Tracé 2529" d="M43.844,10.374,33.29,21.124a.19.19,0,0,0,0,.275l7.386,7.866a1.273,1.273,0,0,1,0,1.8,1.279,1.279,0,0,1-1.8,0l-7.356-7.837a.2.2,0,0,0-.284,0l-1.795,1.824a7.9,7.9,0,0,1-5.63,2.374,8.056,8.056,0,0,1-5.748-2.442l-1.726-1.756a.2.2,0,0,0-.284,0L8.691,31.07a1.279,1.279,0,0,1-1.8,0,1.273,1.273,0,0,1,0-1.8L14.272,21.4a.209.209,0,0,0,0-.275L3.708,10.374a.193.193,0,0,0-.333.137v21.51A3.148,3.148,0,0,0,6.514,35.16H41.039a3.148,3.148,0,0,0,3.139-3.139V10.511A.2.2,0,0,0,43.844,10.374Z" transform="translate(-3.375 -6.912)" fill="#4385f6"/>
</svg>
