<svg xmlns="http://www.w3.org/2000/svg" width="36.15" height="33.499" viewBox="0 0 36.15 33.499">
  <g id="Profile" transform="translate(0.15 0.15)">
    <path id="Profile-2" data-name="Profile" d="M33.315,23.865c-1.058-.98-2.829-1.835-5.62-3.128a31.321,31.321,0,0,1-4.317-2.232c2.378-2.706,3.758-5.763,3.758-8.438a12.388,12.388,0,0,0-1.1-6.09C25.049,2.162,22.839,0,17.925,0S10.8,2.162,9.812,3.977a12.375,12.375,0,0,0-1.1,6.09c0,2.677,1.379,5.732,3.758,8.438a31.168,31.168,0,0,1-4.318,2.232c-2.79,1.293-4.561,2.148-5.62,3.128C.189,26.037.012,29.681,0,30.39a2.664,2.664,0,0,0,.859,1.984,3.113,3.113,0,0,0,2.127.825H32.862a3.113,3.113,0,0,0,2.129-.825,2.669,2.669,0,0,0,.859-1.985C35.838,29.681,35.659,26.037,33.315,23.865Zm.08,7.052a.778.778,0,0,1-.533.207H2.986a.777.777,0,0,1-.531-.207.674.674,0,0,1-.216-.5c.006-.348.11-3.451,1.878-5.089a23.2,23.2,0,0,1,5.038-2.74,25.085,25.085,0,0,0,4.854-2.58l1.512-1.324L14.209,17.2c-2.068-2.352-3.255-4.951-3.255-7.128a10.7,10.7,0,0,1,.858-5.155c1.027-1.882,3.082-2.837,6.114-2.837s5.086.954,6.112,2.836a10.711,10.711,0,0,1,.858,5.156c0,2.176-1.186,4.775-3.257,7.128L20.326,18.69l1.512,1.323a25.139,25.139,0,0,0,4.854,2.58,23.1,23.1,0,0,1,5.038,2.74c1.439,1.332,1.858,3.826,1.878,5.089A.665.665,0,0,1,33.4,30.917Z" transform="translate(0)" fill="#4385f6" stroke="#4385f6" stroke-width="0.3"/>
  </g>
</svg>
