<svg xmlns="http://www.w3.org/2000/svg" width="581.5" height="307.334" viewBox="0 0 581.5 307.334">
  <g id="Groupe_39715" data-name="Groupe 39715" transform="translate(0)">
    <path id="Tracé_78009" data-name="Tracé 78009" d="M915.243,541.927a353.132,353.132,0,0,1-45.377-3.329c-.528-.073-1.056-.152-1.584-.226l.794-142.174c.524-.417,1.055-.828,1.592-1.226,1.778-1.327,3.606-2.571,5.5-3.713,9.111-5.489,19.778-8,27.138-5.484l.115.045a12.915,12.915,0,0,1,4.38,2.521c6.463,5.742,5.386,17.35.169,27.885,10.343-9.449,23.394-16.973,35.044-17.545,11.363-.561,19.481,5.381,26.379,11.826.228.211.45.423.672.634.114.1.222.211.336.314,5.257,5.028,10.439,10.89,9.813,19.375-.689,9.306-8.483,19.623-17.566,26.856s-19.387,12.041-29.45,16.914-20.37,10.157-28.965,17.986c13.412-10.6,28.673-19.153,43.514-22.311s29.1-.379,36.086,9.072a22.1,22.1,0,0,1,3.907,9.682c.068.408.123.822.172,1.242,1,8.748-2.03,19.194-9.263,28.081-7.963,9.787-19.769,16.573-30.976,19.949S925.673,542.036,915.243,541.927Z" transform="translate(-406.7 -272.648)" fill="#f2f2f2"/>
    <path id="Tracé_78010" data-name="Tracé 78010" d="M869.068,449.908l.015-2.719q.81-1.295,1.6-2.6c.341-.539.668-1.085,1-1.631q8.261-13.527,15.848-27.222t14.487-27.5a1.139,1.139,0,0,1,1.3-.655.327.327,0,0,1,.1.045c.241.128.341.416.135.835-.567,1.13-1.134,2.267-1.713,3.4q-7.012,13.859-14.724,27.6t-16.1,27.3c-.116.19-.238.381-.353.571C870.135,448.188,869.6,449.045,869.068,449.908Z" transform="translate(-406.986 -273.647)" fill="#fff"/>
    <path id="Tracé_78011" data-name="Tracé 78011" d="M868.76,498.615l.009-1.681c.531-.379,1.061-.752,1.592-1.131q18.738-13.363,37.477-26.72,30.678-21.874,61.355-43.734a1.085,1.085,0,0,1,.37-.189c.453-.125.718.208.671.634a1.277,1.277,0,0,1-.565.888q-17.2,12.264-34.4,24.521l-61.042,43.514c-1.291.922-2.589,1.845-3.881,2.767C869.822,497.863,869.29,498.242,868.76,498.615Z" transform="translate(-406.874 -287.3)" fill="#fff"/>
    <path id="Tracé_78012" data-name="Tracé 78012" d="M878.406,580.871c-2.833-.086-5.621-.273-8.383-.518l-1.585-.143.01-1.764c.528.054,1.056.108,1.585.155,3.991.373,8.026.637,12.171.673a169.807,169.807,0,0,0,34.226-3.343,213.112,213.112,0,0,0,35.558-10.353,244.193,244.193,0,0,0,35.181-16.939.939.939,0,0,1,.625-.156c.5.073.652.742.171,1.242a1.459,1.459,0,0,1-.32.253q-2.1,1.22-4.21,2.4a244.023,244.023,0,0,1-35.3,16.213,212.115,212.115,0,0,1-35.611,9.652A167.512,167.512,0,0,1,878.406,580.871Z" transform="translate(-406.757 -332.105)" fill="#fff"/>
    <path id="Tracé_78013" data-name="Tracé 78013" d="M638.443,208.674H251.929a5.557,5.557,0,0,0-5.552,5.553V476.139a5.557,5.557,0,0,0,5.552,5.553H638.443a5.548,5.548,0,0,0,4.222-1.949,1.293,1.293,0,0,0,.121-.153,5.2,5.2,0,0,0,.8-1.344,5.417,5.417,0,0,0,.42-2.108V214.227A5.559,5.559,0,0,0,638.443,208.674Zm3.974,267.465a3.932,3.932,0,0,1-.656,2.178,4.1,4.1,0,0,1-1.5,1.35,3.936,3.936,0,0,1-1.815.439H251.929a3.972,3.972,0,0,1-3.967-3.967V214.227a3.972,3.972,0,0,1,3.967-3.967H638.443a3.973,3.973,0,0,1,3.974,3.968Z" transform="translate(-180.8 -208.674)" fill="#3f3d56"/>
    <rect id="Rectangle_22458" data-name="Rectangle 22458" width="396.038" height="1.587" transform="translate(66.367 22.254)" fill="#3f3d56"/>
    <circle id="Ellipse_39" data-name="Ellipse 39" cx="4.762" cy="4.762" r="4.762" transform="translate(75.098 7.143)" fill="#3f3d56"/>
    <circle id="Ellipse_40" data-name="Ellipse 40" cx="4.762" cy="4.762" r="4.762" transform="translate(88.789 7.143)" fill="#3f3d56"/>
    <circle id="Ellipse_41" data-name="Ellipse 41" cx="4.762" cy="4.762" r="4.762" transform="translate(102.479 7.143)" fill="#3f3d56"/>
    <path id="Tracé_78014" data-name="Tracé 78014" d="M596.644,291.882H397.974a8.278,8.278,0,0,1,0-16.556h198.67a8.278,8.278,0,0,1,0,16.556ZM397.974,276.6a7,7,0,0,0,0,14.009h198.67a7,7,0,0,0,0-14.009Z" transform="translate(-232.86 -232.885)" fill="#3f3d56"/>
    <path id="Tracé_78015" data-name="Tracé 78015" d="M392.225,375.014H374.4a5.094,5.094,0,0,1,0-10.188h17.829a5.094,5.094,0,0,1,0,10.188Z" transform="translate(-225.452 -265.394)" fill="#ccc"/>
    <path id="Tracé_78016" data-name="Tracé 78016" d="M413.239,402.014H374.4a5.094,5.094,0,1,1,0-10.188h38.842a5.094,5.094,0,1,1,0,10.188Z" transform="translate(-225.452 -275.202)" fill="#ccc"/>
    <path id="Tracé_78017" data-name="Tracé 78017" d="M397.225,493.014H379.4a5.094,5.094,0,1,1,0-10.188h17.829a5.094,5.094,0,0,1,0,10.188Z" transform="translate(-227.268 -308.256)" fill="#ccc"/>
    <path id="Tracé_78018" data-name="Tracé 78018" d="M418.239,520.014H379.4a5.094,5.094,0,1,1,0-10.188h38.842a5.094,5.094,0,1,1,0,10.188Z" transform="translate(-227.268 -318.064)" fill="#ccc"/>
    <path id="Tracé_78019" data-name="Tracé 78019" d="M581.225,490.014H563.4a5.094,5.094,0,0,1,0-10.188h17.829a5.094,5.094,0,1,1,0,10.188Z" transform="translate(-294.104 -307.167)" fill="#ccc"/>
    <path id="Tracé_78020" data-name="Tracé 78020" d="M602.239,517.014H563.4a5.094,5.094,0,0,1,0-10.188h38.843a5.094,5.094,0,0,1,0,10.188Z" transform="translate(-294.104 -316.974)" fill="#ccc"/>
    <path id="Tracé_78021" data-name="Tracé 78021" d="M578.225,380.014H560.4a5.094,5.094,0,0,1,0-10.188h17.829a5.094,5.094,0,0,1,0,10.188Z" transform="translate(-293.014 -267.211)" fill="#ccc"/>
    <path id="Tracé_78022" data-name="Tracé 78022" d="M599.239,407.014H560.4a5.094,5.094,0,0,1,0-10.188h38.843a5.094,5.094,0,0,1,0,10.188Z" transform="translate(-293.014 -277.018)" fill="#ccc"/>
    <path id="Tracé_78023" data-name="Tracé 78023" d="M765.225,374.014H747.4a5.094,5.094,0,0,1,0-10.188h17.829a5.094,5.094,0,1,1,0,10.188Z" transform="translate(-360.94 -265.031)" fill="#ccc"/>
    <path id="Tracé_78024" data-name="Tracé 78024" d="M786.239,401.014H747.4a5.094,5.094,0,0,1,0-10.188h38.843a5.094,5.094,0,0,1,0,10.188Z" transform="translate(-360.94 -274.839)" fill="#ccc"/>
    <circle id="Ellipse_42" data-name="Ellipse 42" cx="19.103" cy="19.103" r="19.103" transform="translate(98.385 94.019)" fill="#4385F6"/>
    <path id="Tracé_78025" data-name="Tracé 78025" d="M330.641,390.019H312.811a1.912,1.912,0,0,1-1.91-1.91V374.736a1.912,1.912,0,0,1,1.91-1.91h5.019a1.9,1.9,0,0,1,1.627.909l1.4,2.275h9.783a1.912,1.912,0,0,1,1.91,1.91v10.188a1.912,1.912,0,0,1-1.91,1.91ZM312.811,374.1a.638.638,0,0,0-.637.637v13.372a.638.638,0,0,0,.637.637h17.829a.638.638,0,0,0,.637-.637V377.92a.638.638,0,0,0-.637-.637h-10.5l-1.773-2.881a.633.633,0,0,0-.542-.3Z" transform="translate(-204.238 -268.3)" fill="#fff"/>
    <circle id="Ellipse_43" data-name="Ellipse 43" cx="19.103" cy="19.103" r="19.103" transform="translate(215.549 97.203)" fill="#ffbe00"/>
    <path id="Tracé_78026" data-name="Tracé 78026" d="M514.367,396.523H497.811a1.912,1.912,0,0,1-1.91-1.91V374.236a1.912,1.912,0,0,1,1.91-1.91h12a1.915,1.915,0,0,1,1.2.421l4.559,3.664a1.9,1.9,0,0,1,.714,1.489v16.713A1.912,1.912,0,0,1,514.367,396.523ZM497.811,373.6a.638.638,0,0,0-.637.637v20.376a.638.638,0,0,0,.637.637h16.556a.638.638,0,0,0,.637-.637V377.9a.633.633,0,0,0-.238-.5l-4.56-3.664a.638.638,0,0,0-.4-.14Z" transform="translate(-271.437 -268.119)" fill="#fff"/>
    <path id="Tracé_78027" data-name="Tracé 78027" d="M513.726,385.6H503.538a.637.637,0,1,1,0-1.273h10.188a.637.637,0,0,1,0,1.273Z" transform="translate(-273.98 -272.478)" fill="#fff"/>
    <path id="Tracé_78028" data-name="Tracé 78028" d="M513.726,391.6H503.538a.637.637,0,1,1,0-1.274h10.188a.637.637,0,0,1,0,1.274Z" transform="translate(-273.98 -274.657)" fill="#fff"/>
    <path id="Tracé_78029" data-name="Tracé 78029" d="M513.726,397.6H503.538a.637.637,0,1,1,0-1.274h10.188a.637.637,0,0,1,0,1.274Z" transform="translate(-273.98 -276.836)" fill="#fff"/>
    <circle id="Ellipse_44" data-name="Ellipse 44" cx="19.103" cy="19.103" r="19.103" transform="translate(333.35 93.382)" fill="#4385F6"/>
    <path id="Tracé_78030" data-name="Tracé 78030" d="M699.64,388.335H681.81a1.913,1.913,0,0,1-1.91-1.91V376.236a1.912,1.912,0,0,1,1.91-1.91H699.64a1.913,1.913,0,0,1,1.91,1.91v10.188A1.912,1.912,0,0,1,699.64,388.335ZM681.81,375.6a.637.637,0,0,0-.637.637v10.188a.637.637,0,0,0,.637.637H699.64a.637.637,0,0,0,.637-.637V376.236a.637.637,0,0,0-.637-.637Z" transform="translate(-338.273 -268.845)" fill="#fff"/>
    <path id="Tracé_78031" data-name="Tracé 78031" d="M690.725,383.736a1.914,1.914,0,0,1-1.013-.288L680.2,377.5a.637.637,0,0,1,.675-1.08l9.514,5.946a.64.64,0,0,0,.675,0l9.513-5.946a.637.637,0,0,1,.675,1.08l-9.513,5.946A1.914,1.914,0,0,1,690.725,383.736Z" transform="translate(-338.273 -269.571)" fill="#fff"/>
    <circle id="Ellipse_45" data-name="Ellipse 45" cx="19.103" cy="19.103" r="19.103" transform="translate(98.385 169.157)" fill="#ffbe00"/>
    <path id="Tracé_78032" data-name="Tracé 78032" d="M330.641,507.335H312.811a1.912,1.912,0,0,1-1.91-1.91V495.236a1.912,1.912,0,0,1,1.91-1.91h17.829a1.912,1.912,0,0,1,1.91,1.91v10.188a1.912,1.912,0,0,1-1.91,1.91ZM312.811,494.6a.637.637,0,0,0-.637.637v10.188a.637.637,0,0,0,.637.637h17.829a.637.637,0,0,0,.637-.637V495.236a.637.637,0,0,0-.637-.637Z" transform="translate(-204.238 -312.071)" fill="#fff"/>
    <path id="Tracé_78033" data-name="Tracé 78033" d="M329.427,510.059H316.613a1.273,1.273,0,0,1-1.1-1.91l3.86-6.686a1.274,1.274,0,0,1,2.206,0l2.493,4.318,1.444-2.5a1.274,1.274,0,0,1,2.206,0l2.811,4.87a1.274,1.274,0,0,1-1.1,1.91Zm0-1.273h0l-2.811-4.87-2,3.457a.637.637,0,0,1-.552.318h0a.637.637,0,0,1-.552-.318l-3.044-5.273-3.86,6.686Z" transform="translate(-205.85 -314.795)" fill="#fff"/>
    <circle id="Ellipse_46" data-name="Ellipse 46" cx="1.274" cy="1.274" r="1.274" transform="translate(123.219 183.803)" fill="#fff"/>
    <circle id="Ellipse_47" data-name="Ellipse 47" cx="19.103" cy="19.103" r="19.103" transform="translate(216.822 167.247)" fill="#4385F6"/>
    <path id="Tracé_78034" data-name="Tracé 78034" d="M510.632,495.288a5.731,5.731,0,1,1,5.731-5.731A5.731,5.731,0,0,1,510.632,495.288Zm0-10.188a4.457,4.457,0,1,0,4.457,4.457A4.457,4.457,0,0,0,510.632,485.1Z" transform="translate(-274.706 -308.62)" fill="#fff"/>
    <path id="Tracé_78035" data-name="Tracé 78035" d="M514.818,513.377H504.63a2.231,2.231,0,0,1-2.229-2.229,7.323,7.323,0,0,1,14.646,0,2.231,2.231,0,0,1-2.229,2.229Zm-5.094-8.278a6.056,6.056,0,0,0-6.049,6.049.956.956,0,0,0,.955.955h10.188a.956.956,0,0,0,.955-.955A6.056,6.056,0,0,0,509.724,505.1Z" transform="translate(-273.798 -315.885)" fill="#fff"/>
    <path id="Tracé_78036" data-name="Tracé 78036" d="M80.936,454.021h7.807l3.714-30.111H80.935Z" transform="translate(-29.399 -153.98)" fill="#ffb8b8"/>
    <path id="Tracé_78037" data-name="Tracé 78037" d="M0,0H24.535V9.479H9.479A9.479,9.479,0,0,1,0,0H0Z" transform="translate(74.398 307.29) rotate(179.997)" fill="#2f2e41"/>
    <path id="Tracé_78038" data-name="Tracé 78038" d="M34.936,454.021h7.807l3.714-30.111H34.935Z" transform="translate(-12.69 -153.98)" fill="#ffb8b8"/>
    <path id="Tracé_78039" data-name="Tracé 78039" d="M0,0H24.535V9.479H9.479A9.479,9.479,0,0,1,0,0H0Z" transform="translate(45.107 307.289) rotate(179.997)" fill="#2f2e41"/>
    <path id="Tracé_78040" data-name="Tracé 78040" d="M173.76,491.486a6.841,6.841,0,0,0,1.313-10.407l5.14-72.946-14.807,1.436L165,481.005a6.878,6.878,0,0,0,8.76,10.481Z" transform="translate(-150.56 -281.125)" fill="#ffb8b8"/>
    <path id="Tracé_78041" data-name="Tracé 78041" d="M206.17,602.95a2.876,2.876,0,0,1-2.846-2.525l-4.538-37.953a2.229,2.229,0,0,0-4.415-.081l-5.716,36.338a2.852,2.852,0,0,1-2.831,2.42H176.56a2.866,2.866,0,0,1-2.865-2.887l4.422-80.572a2.849,2.849,0,0,1,2.454-2.814l34.381-4.991a2.866,2.866,0,0,1,3.277,2.856l-.6,86.954a2.865,2.865,0,0,1-2.729,2.842l-8.594.41Q206.238,602.95,206.17,602.95Z" transform="translate(-154.4 -318.074)" fill="#2f2e41"/>
    <path id="Tracé_78042" data-name="Tracé 78042" d="M185.732,474.776a28.708,28.708,0,0,1-9.7-1.726,2.844,2.844,0,0,1-1.858-2.55c-.3-6.582-2.032-40.462-7.084-61.129a21.127,21.127,0,0,1,8.046-22.015q.408-.293.831-.575a20.571,20.571,0,0,1,19.991-1.567,21.153,21.153,0,0,1,12.33,16.528l8.238,61.162a2.851,2.851,0,0,1-.593,2.166A2.813,2.813,0,0,1,214,466.135c-2.855.285-8.775,1.391-16.352,5.6A24.276,24.276,0,0,1,185.732,474.776Z" transform="translate(-151.787 -272.117)" fill="#3f3d56"/>
    <path id="Tracé_78043" data-name="Tracé 78043" d="M171.946,429.866l-13.557-3.676a2.869,2.869,0,0,1-2.016-3.515l4.766-17.578a7.895,7.895,0,0,1,15.5,2.5l-1.085,19.661a2.865,2.865,0,0,1-3.611,2.608Z" transform="translate(-148.071 -277.905)" fill="#3f3d56"/>
    <circle id="Ellipse_48" data-name="Ellipse 48" cx="15.64" cy="15.64" r="15.64" transform="translate(23.326 73.514)" fill="#ffb8b8"/>
    <path id="Tracé_78044" data-name="Tracé 78044" d="M270.063,394a6.7,6.7,0,0,0-.152,1.044l-27.354,15.78-6.649-3.827-7.088,9.279,14.223,10.138,31.207-24.619A6.683,6.683,0,1,0,270.063,394Z" transform="translate(-174.424 -274.117)" fill="#ffb8b8"/>
    <path id="Tracé_78045" data-name="Tracé 78045" d="M231.469,412.768l-11.783,7.647a2.869,2.869,0,0,1-3.964-.844l-9.914-15.277a7.895,7.895,0,0,1,12.205-9.88l13.922,13.925a2.865,2.865,0,0,1-.467,4.43Z" transform="translate(-165.602 -275.302)" fill="#3f3d56"/>
    <path id="Tracé_78046" data-name="Tracé 78046" d="M182.944,348.188c2.918,3.108,8.336,1.44,8.716-2.806a5.129,5.129,0,0,0-.006-.991c-.2-1.881-1.283-3.588-1.023-5.574a2.923,2.923,0,0,1,.535-1.368c2.325-3.113,7.783,1.393,9.977-1.426,1.345-1.728-.236-4.449.8-6.381,1.363-2.549,5.4-1.292,7.93-2.688,2.816-1.553,2.648-5.874.794-8.5-2.261-3.205-6.225-4.915-10.139-5.162a27.2,27.2,0,0,0-11.457,2.236c-4.152,1.618-8.27,3.855-10.825,7.506-3.108,4.44-3.407,10.41-1.852,15.6C177.335,341.792,180.561,345.65,182.944,348.188Z" transform="translate(-155.046 -246.662)" fill="#2f2e41"/>
    <path id="Tracé_78047" data-name="Tracé 78047" d="M233.176,690.6H144.03a.637.637,0,0,1,0-1.274h89.147a.637.637,0,1,1,0,1.274Z" transform="translate(-143.393 -383.265)" fill="#3f3d56"/>
  </g>
</svg>
