<svg xmlns="http://www.w3.org/2000/svg" width="634.424" height="636.323" viewBox="0 0 634.424 636.323">
  <g id="Groupe_350" data-name="Groupe 350" transform="translate(0 -0.001)">
    <path id="Path_1" data-name="Path 1" d="M288.586,698.98,283,676.943a286.177,286.177,0,0,0-30.359-10.892l-.705,10.241-2.86-11.283c-12.794-3.657-21.5-5.266-21.5-5.266s11.754,44.708,36.416,78.887l28.733,5.047L270.4,746.9a115.767,115.767,0,0,0,9.982,10.581c35.871,33.3,75.826,48.573,89.24,34.121s-4.791-53.159-40.663-86.453c-11.12-10.322-25.09-18.606-39.074-25.127Z" transform="translate(-227.576 -162.933)" fill="#f2f2f2"/>
    <path id="Path_2" data-name="Path 2" d="M354.259,666.371l6.608-21.752A286.144,286.144,0,0,0,340.51,619.6l-5.9,8.4L338,616.868c-9.063-9.741-15.682-15.617-15.682-15.617s-13.045,44.348-9.6,86.354L334.7,706.778l-20.776-8.783A115.771,115.771,0,0,0,317,712.214c13.5,47.045,39.8,80.776,58.756,75.338s23.377-47.983,9.88-95.029c-4.184-14.585-11.861-28.9-20.462-41.706Z" transform="translate(-240.111 -154.261)" fill="#f2f2f2"/>
    <path id="Path_22" data-name="Path 22" d="M692.272,227.207h-3.485V131.726a55.264,55.264,0,0,0-55.264-55.264h-202.3a55.264,55.264,0,0,0-55.264,55.264V655.552a55.264,55.264,0,0,0,55.264,55.264h202.3a55.264,55.264,0,0,0,55.263-55.263V295.173h3.485Z" transform="translate(-249.574 -76.461)" fill="#e6e6e6"/>
    <path id="Path_23" data-name="Path 23" d="M638.407,93.335H612a19.607,19.607,0,0,1-18.156,27.012H477.953A19.607,19.607,0,0,1,459.8,93.335H435.136a41.271,41.271,0,0,0-41.271,41.271V657.672a41.271,41.271,0,0,0,41.271,41.271H638.407a41.271,41.271,0,0,0,41.271-41.271h0V134.6a41.27,41.27,0,0,0-41.27-41.27Z" transform="translate(-252.228 -78.963)" fill="#fff"/>
    <path id="Path_6" data-name="Path 6" d="M527.61,334.34A20.816,20.816,0,0,1,538.03,316.3a20.825,20.825,0,1,0,0,36.069A20.812,20.812,0,0,1,527.61,334.34Z" transform="translate(-268.969 -111.604)" fill="#ccc"/>
    <path id="Path_7" data-name="Path 7" d="M558.347,334.34A20.815,20.815,0,0,1,568.768,316.3a20.825,20.825,0,1,0,0,36.069,20.812,20.812,0,0,1-10.417-18.032Z" transform="translate(-273.526 -111.604)" fill="#ccc"/>
    <circle id="Ellipse_1" data-name="Ellipse 1" cx="20.825" cy="20.825" r="20.825" transform="translate(289.581 201.909)" fill="#6c63ff"/>
    <path id="Path_8" data-name="Path 8" d="M610.988,391.688H489.613a4.364,4.364,0,0,1-4.358-4.358V265.955a4.364,4.364,0,0,1,4.358-4.358H610.988a4.363,4.363,0,0,1,4.358,4.358V387.33A4.363,4.363,0,0,1,610.988,391.688ZM489.613,263.341A2.617,2.617,0,0,0,487,265.956V387.331a2.617,2.617,0,0,0,2.615,2.615H610.988a2.617,2.617,0,0,0,2.615-2.615V265.956a2.617,2.617,0,0,0-2.615-2.615Z" transform="translate(-265.777 -103.908)" fill="#ccc"/>
    <rect id="Rectangle_1" data-name="Rectangle 1" width="186.152" height="1.744" transform="translate(186.16 380.819)" fill="#ccc"/>
    <circle id="Ellipse_2" data-name="Ellipse 2" cx="5.879" cy="5.879" r="5.879" transform="translate(186.16 358.176)" fill="#6c63ff"/>
    <rect id="Rectangle_2" data-name="Rectangle 2" width="186.152" height="1.744" transform="translate(186.16 439.604)" fill="#ccc"/>
    <circle id="Ellipse_3" data-name="Ellipse 3" cx="5.879" cy="5.879" r="5.879" transform="translate(186.16 416.962)" fill="#6c63ff"/>
    <path id="Tracé_2552" data-name="Tracé 2552" d="M649.784,666.249H590.955a3.837,3.837,0,0,1-3.833-3.833V641.8a3.837,3.837,0,0,1,3.833-3.833h58.829a3.837,3.837,0,0,1,3.833,3.833v20.619a3.837,3.837,0,0,1-3.833,3.833Z" transform="translate(-280.879 -159.704)" fill="#6c63ff"/>
    <circle id="Ellipse_7" data-name="Ellipse 7" cx="5.879" cy="5.879" r="5.879" transform="translate(205.336 358.176)" fill="#6c63ff"/>
    <circle id="Ellipse_8" data-name="Ellipse 8" cx="5.879" cy="5.879" r="5.879" transform="translate(224.513 358.176)" fill="#6c63ff"/>
    <circle id="Ellipse_9" data-name="Ellipse 9" cx="5.879" cy="5.879" r="5.879" transform="translate(205.336 416.962)" fill="#6c63ff"/>
    <circle id="Ellipse_10" data-name="Ellipse 10" cx="5.879" cy="5.879" r="5.879" transform="translate(224.513 416.962)" fill="#6c63ff"/>
    <path id="Path_88" data-name="Path 88" d="M862.788,823.178H251.244c-1.309,0-2.37-.465-2.37-1.037s1.06-1.038,2.37-1.038H862.788c1.308,0,2.37.465,2.37,1.038S864.1,823.178,862.788,823.178Z" transform="translate(-230.733 -186.854)" fill="#3f3d56"/>
    <path id="Tracé_2553" data-name="Tracé 2553" d="M790.115,561.434a8.6,8.6,0,0,1,1.2.671l38.2-16.305,1.364-10.064,15.265-.093-.9,23.081-50.424,13.335a9.036,9.036,0,0,1-.381,1.029,8.717,8.717,0,1,1-4.326-11.653Z" transform="translate(-309.151 -144.535)" fill="#ffb8b8"/>
    <path id="Tracé_2554" data-name="Tracé 2554" d="M634.3,728.011H623.855l-4.967-40.278H634.3Z" transform="translate(-91.75 -101.956)" fill="#ffb8b8"/>
    <path id="Tracé_2555" data-name="Tracé 2555" d="M613.756,731.518h20.139V744.2H601.076A12.68,12.68,0,0,1,613.756,731.518Z" transform="translate(-89.11 -108.447)" fill="#2f2e41"/>
    <path id="Tracé_2556" data-name="Tracé 2556" d="M681.3,724.58,670.911,725.6l-8.893-39.6,15.337-1.511Z" transform="translate(-98.144 -101.477)" fill="#ffb8b8"/>
    <path id="Tracé_2557" data-name="Tracé 2557" d="M12.68,0H32.819V12.68H0A12.68,12.68,0,0,1,12.68,0Z" transform="translate(552.429 623.131) rotate(-5.625)" fill="#2f2e41"/>
    <circle id="Ellipse_45" data-name="Ellipse 45" cx="20.92" cy="20.92" r="20.92" transform="translate(524.535 306.641)" fill="#ffb8b8"/>
    <path id="Tracé_2558" data-name="Tracé 2558" d="M844.81,776.294a3.808,3.808,0,0,1-3.76-3.149c-5.4-30-23.072-128.107-23.495-130.825a1.213,1.213,0,0,1-.013-.189v-7.315a1.269,1.269,0,0,1,.238-.743l2.334-3.269a1.26,1.26,0,0,1,.974-.532c13.306-.624,56.884-2.452,58.989.178h0c2.114,2.643,1.367,10.653,1.2,12.231l.008.165,19.578,125.2a3.843,3.843,0,0,1-3.164,4.374l-12.228,2.015a3.851,3.851,0,0,1-4.28-2.634c-3.782-12.085-16.464-52.739-20.859-68.469a.425.425,0,0,0-.835.118c.22,15,.75,53.254.933,66.468l.02,1.423a3.848,3.848,0,0,1-3.486,3.864l-11.791,1.071C845.048,776.29,844.928,776.294,844.81,776.294Z" transform="translate(-315.038 -158.386)" fill="#2f2e41"/>
    <path id="Path_99" data-name="Path 99" d="M847.338,494.915c-3.651,2.17-5.836,6.159-7.089,10.217a96.828,96.828,0,0,0-4.16,23.133l-1.325,23.509-16.4,62.323c14.215,12.027,22.414,9.294,41.549-.544s21.321,3.28,21.321,3.28l3.826-53.029,5.467-57.947a25.693,25.693,0,0,0-4.141-3.981,42.3,42.3,0,0,0-36.15-7.662Z" transform="translate(-315.16 -138.209)" fill="#6c63ff"/>
    <path id="Tracé_2559" data-name="Tracé 2559" d="M844.033,575.545a8.956,8.956,0,0,1,1.278.6l37.774-18.906L883.712,547l15.582-1.074.835,23.349-50.48,16.693a8.94,8.94,0,1,1-5.616-10.419Z" transform="translate(-317.182 -146.059)" fill="#ffb8b8"/>
    <path id="Path_101" data-name="Path 101" d="M899.289,508.215c9.294,3.28,10.931,38.817,10.931,38.817-10.934-6.014-24.055,3.827-24.055,3.827s-2.733-9.294-6.014-21.321a20.893,20.893,0,0,1,4.373-19.681S889.994,504.933,899.289,508.215Z" transform="translate(-324.195 -140.302)" fill="#6c63ff"/>
    <path id="Path_102" data-name="Path 102" d="M883.086,461.486c-2.606-2.085-6.163,1.7-6.163,1.7l-2.085-18.767s-13.033,1.561-21.373-.521-9.644,7.559-9.644,7.559a66.932,66.932,0,0,1-.261-11.729c.521-4.692,7.3-9.384,19.288-12.512s18.246,10.426,18.246,10.426C889.435,441.817,885.693,463.571,883.086,461.486Z" transform="translate(-318.874 -128.392)" fill="#2f2e41"/>
  </g>
</svg>
