<svg id="Groupe_348" data-name="Groupe 348" xmlns="http://www.w3.org/2000/svg" width="636.331" height="442.729" viewBox="0 0 636.331 442.729">
  <ellipse id="Ellipse_39" data-name="Ellipse 39" cx="126.785" cy="9.629" rx="126.785" ry="9.629" transform="translate(0 423.471)" fill="#e6e6e6"/>
  <path id="Tracé_2530" data-name="Tracé 2530" d="M324.272,279.935c22.064-9.385,49.546-3.439,76.385.688.25-5,3.277-11.08.106-14.566-3.853-4.236-3.5-8.687-1.18-13.163,5.928-11.447-2.565-23.627-11.141-33.754a18.993,18.993,0,0,0-15.852-6.654L356.7,213.621a19.025,19.025,0,0,0-16.893,13.6h0c-3.793,5.159-5.824,10.3-4.545,15.422-5.682,3.883-6.636,8.57-4.083,13.854,2.165,3.327,2.142,6.565-.1,9.714a44.85,44.85,0,0,0-6.668,13.245Z" transform="translate(-227.36 -181.701)" fill="#2f2e41"/>
  <path id="Tracé_2531" data-name="Tracé 2531" d="M863.278,643.886h-449.7A15.079,15.079,0,0,1,398.5,628.808h0q244.524-28.418,479.857,0h0a15.079,15.079,0,0,1-15.078,15.079Z" transform="translate(-242.025 -261.154)" fill="#2f2e41"/>
  <path id="Tracé_2532" data-name="Tracé 2532" d="M878.357,554.576,398.5,553.689l55.614-93.577.266-.443V253.438a19.06,19.06,0,0,1,19.063-19.061H800.755a19.06,19.06,0,0,1,19.061,19.063V461.088Z" transform="translate(-242.025 -186.036)" fill="#3f3d56"/>
  <path id="Tracé_2533" data-name="Tracé 2533" d="M489.821,250.957a6.216,6.216,0,0,0-6.209,6.209v188.04a6.216,6.216,0,0,0,6.209,6.209H820.666a6.216,6.216,0,0,0,6.209-6.209V257.165a6.216,6.216,0,0,0-6.209-6.209Z" transform="translate(-258.84 -189.312)" fill="#fff"/>
  <path id="Tracé_2534" data-name="Tracé 2534" d="M488.2,531.718a2.668,2.668,0,0,0-2.418,1.549L468.65,570.52a2.661,2.661,0,0,0,2.417,3.773H831.434a2.661,2.661,0,0,0,2.38-3.851l-18.626-37.253a2.647,2.647,0,0,0-2.379-1.471Z" transform="translate(-255.836 -244.78)" fill="#2f2e41"/>
  <circle id="Ellipse_40" data-name="Ellipse 40" cx="3.991" cy="3.991" r="3.991" transform="translate(391.081 50.558)" fill="#fff"/>
  <path id="Tracé_2535" data-name="Tracé 2535" d="M649.987,593.619a2.665,2.665,0,0,0-2.569,1.969l-4.3,15.966a2.661,2.661,0,0,0,2.569,3.353h81.747a2.66,2.66,0,0,0,2.514-3.531l-5.526-15.966a2.662,2.662,0,0,0-2.515-1.79Z" transform="translate(-290.335 -257.009)" fill="#2f2e41"/>
  <path id="Tracé_2536" data-name="Tracé 2536" d="M630.008,337.135v3.548h-365.7l.275-.443v-3.1Z" transform="translate(-52.217 -66.606)" fill="#2f2e41"/>
  <circle id="Ellipse_41" data-name="Ellipse 41" cx="62.089" cy="62.089" r="62.089" transform="translate(505.502 0)" fill="#6c63ff"/>
  <path id="Tracé_2537" data-name="Tracé 2537" d="M929.35,275.833H877.905a3.551,3.551,0,0,1-3.548-3.548V241.24a3.552,3.552,0,0,1,3.548-3.548H929.35a3.552,3.552,0,0,1,3.548,3.548v31.044a3.551,3.551,0,0,1-3.548,3.548ZM877.906,241.24v31.044h51.448l0-31.044Z" transform="translate(-336.037 -186.691)" fill="#fff"/>
  <path id="Tracé_2538" data-name="Tracé 2538" d="M922.869,234.252H890.938V220.06c0-10.279,6.715-17.74,15.966-17.74s15.966,7.461,15.966,17.74ZM894.486,230.7h24.835V220.06c0-8.356-5.106-14.192-12.418-14.192s-12.418,5.836-12.418,14.192Z" transform="translate(-339.313 -179.703)" fill="#fff"/>
  <circle id="Ellipse_42" data-name="Ellipse 42" cx="3.548" cy="3.548" r="3.548" transform="translate(564.043 65.637)" fill="#fff"/>
  <path id="Tracé_2539" data-name="Tracé 2539" d="M792.7,403.337H537.014a4.74,4.74,0,0,1-4.735-4.735V335.176a4.74,4.74,0,0,1,4.735-4.735H792.7a4.741,4.741,0,0,1,4.735,4.735V398.6A4.74,4.74,0,0,1,792.7,403.337Zm-255.688-71a2.844,2.844,0,0,0-2.841,2.841V398.6a2.844,2.844,0,0,0,2.841,2.841H792.7a2.844,2.844,0,0,0,2.841-2.841V335.176a2.844,2.844,0,0,0-2.841-2.841Z" transform="translate(-268.455 -205.015)" fill="#e6e6e6"/>
  <circle id="Ellipse_43" data-name="Ellipse 43" cx="19.288" cy="19.288" r="19.288" transform="translate(289 140.152)" fill="#e6e6e6"/>
  <path id="Tracé_2540" data-name="Tracé 2540" d="M642.412,356.8a3.215,3.215,0,1,0,0,6.429H793.958a3.215,3.215,0,0,0,0-6.429Z" transform="translate(-289.578 -210.223)" fill="#e6e6e6"/>
  <path id="Tracé_2541" data-name="Tracé 2541" d="M642.412,380.842a3.215,3.215,0,1,0,0,6.429h65.211a3.215,3.215,0,1,0,0-6.429Z" transform="translate(-289.578 -214.972)" fill="#e6e6e6"/>
  <path id="Tracé_2542" data-name="Tracé 2542" d="M455.238,375.677l-47.266,25.129-.6-20.941c15.427-2.575,30.1-7.059,43.676-14.359l4.943-12.213a8.279,8.279,0,0,1,14.072-2.149h0a8.279,8.279,0,0,1-.729,11.289Z" transform="translate(-243.778 -208.508)" fill="#ffb8b8"/>
  <path id="Tracé_2543" data-name="Tracé 2543" d="M323.017,555.465h0a9.287,9.287,0,0,1,1.179-7.513l10.383-15.935a18.145,18.145,0,0,1,23.539-6.21h0c-4.364,7.428-3.755,13.944,1.507,19.606A94.391,94.391,0,0,0,337.209,560.7a9.287,9.287,0,0,1-14.191-5.231Z" transform="translate(-227.048 -243.211)" fill="#2f2e41"/>
  <path id="Tracé_2544" data-name="Tracé 2544" d="M448.258,520.117h0a17.816,17.816,0,0,1-15.143,8.65l-68.978.523-2.991-17.351,30.513-8.974L365.932,483.22l28.12-32.907,51.075,47.6a17.817,17.817,0,0,1,3.13,22.2Z" transform="translate(-234.645 -228.697)" fill="#2f2e41"/>
  <path id="Tracé_2545" data-name="Tracé 2545" d="M343.876,626.993H327.722c-14.5-99.42-29.268-199.118,14.359-236.329l51.454,8.376-6.582,43.676-28.719,32.907Z" transform="translate(-225.153 -216.913)" fill="#2f2e41"/>
  <path id="Tracé_2546" data-name="Tracé 2546" d="M360.951,706.209h0a9.287,9.287,0,0,1-7.513-1.179l-17.54-2.358a18.145,18.145,0,0,1-6.212-23.539h0c7.428,4.363,13.944,3.755,19.606-1.508,4,8.078,10.593,7.586,16.889,14.392a9.287,9.287,0,0,1-5.23,14.192Z" transform="translate(-228.029 -273.606)" fill="#2f2e41"/>
  <path id="Tracé_2547" data-name="Tracé 2547" d="M391.807,297.738l-29.915-7.18c4.968-10.17,5.378-21.486,2.991-33.5l20.342-.6C385.862,271.4,387.791,285.364,391.807,297.738Z" transform="translate(-234.793 -190.398)" fill="#ffb8b8"/>
  <path id="Tracé_2548" data-name="Tracé 2548" d="M395.628,397.021c-21.777,14.84-37.164.508-48.906-21.6,1.632-13.531-1.01-29.723-5.9-47.317a32.208,32.208,0,0,1,19.664-38.839h0l25.727,10.769c21.845,17.806,26.145,37.094,17.949,57.437Z" transform="translate(-230.392 -196.879)" fill="#6c63ff"/>
  <path id="Tracé_2549" data-name="Tracé 2549" d="M318.1,320.5l-23.932,12.565L336.651,358.2l5.911,14.58a7.733,7.733,0,0,1-4.645,10.216h0a7.733,7.733,0,0,1-10.24-6.856l-.6-10.161-53.991-17.817a12.625,12.625,0,0,1-7.922-7.713h0a12.625,12.625,0,0,1,4.736-14.687l43.416-29.785Z" transform="translate(-215.535 -198.205)" fill="#ffb8b8"/>
  <path id="Tracé_2550" data-name="Tracé 2550" d="M353.191,321.34c-9.981-4.374-19.057.378-30.513,4.188l-1.795-31.71c11.375-6.063,22.221-7.7,32.308-2.991Z" transform="translate(-226.691 -196.65)" fill="#6c63ff"/>
  <circle id="Ellipse_44" data-name="Ellipse 44" cx="19.1" cy="19.1" r="19.1" transform="translate(119.341 43.565)" fill="#ffb8b8"/>
  <path id="Tracé_2551" data-name="Tracé 2551" d="M394.029,245c-18.91,1.852-33.32-1.241-42.529-10.047v-7.092h40.924Z" transform="translate(-232.74 -184.75)" fill="#2f2e41"/>
</svg>
