<svg id="_-Product-Icons" data-name="ðŸ”-Product-Icons" xmlns="http://www.w3.org/2000/svg" width="53.319" height="48" viewBox="0 0 53.319 48">
  <g id="ic_fluent_people_community_24_regular">
    <path id="_-Color" data-name="ðŸŽ¨-Color" d="M35.983,34.984a4.664,4.664,0,0,1,4.664,4.664l0,2.564C40.955,48.047,36.617,51,28.831,51c-7.753,0-12.172-2.9-12.172-8.686V39.648a4.664,4.664,0,0,1,4.664-4.664Zm0,4H21.324a.666.666,0,0,0-.666.666v2.665c0,3.135,2.363,4.688,8.174,4.688,5.778,0,7.985-1.5,7.818-4.683V39.648A.666.666,0,0,0,35.983,38.982ZM6.664,21.657H18.328a10.763,10.763,0,0,0-.254,4l-11.41,0A.666.666,0,0,0,6,26.322v2.665c0,3.135,2.363,4.688,8.174,4.688a21.9,21.9,0,0,0,3.219-.206,7.31,7.31,0,0,0-3.127,4.2l-.092,0C6.419,37.673,2,34.769,2,28.987V26.322A4.664,4.664,0,0,1,6.664,21.657Zm43.978,0a4.664,4.664,0,0,1,4.664,4.664l0,2.564c.311,5.835-4.027,8.787-11.813,8.787l-.449,0A7.343,7.343,0,0,0,39.8,33.387a20.33,20.33,0,0,0,3.7.288c5.778,0,7.985-1.5,7.818-4.683V26.322a.666.666,0,0,0-.666-.666l-11.41,0a10.8,10.8,0,0,0,.082-1.331,10.674,10.674,0,0,0-.336-2.665ZM28.653,16.327a8,8,0,1,1-8,8A8,8,0,0,1,28.653,16.327Zm0,4a4,4,0,1,0,4,4A4,4,0,0,0,28.653,20.325ZM13.994,3a8,8,0,1,1-8,8A8,8,0,0,1,13.994,3ZM43.313,3a8,8,0,1,1-8,8A8,8,0,0,1,43.313,3ZM13.994,7a4,4,0,1,0,4,4A4,4,0,0,0,13.994,7ZM43.313,7a4,4,0,1,0,4,4A4,4,0,0,0,43.313,7Z" transform="translate(-2 -3)" fill="#138a92"/>
  </g>
</svg>
